<svg width="14" height="14" viewBox="0 0 14 14" fill="none" xmlns="http://www.w3.org/2000/svg">
<path d="M4.37499 2.04166C4.14719 2.26947 4.14719 2.63881 4.37499 2.86662L8.50837 7L4.37499 11.1334C4.14718 11.3612 4.14718 11.7305 4.37499 11.9583C4.60279 12.1861 4.97214 12.1861 5.19994 11.9583L9.7458 7.41248C9.97361 7.18467 9.97361 6.81533 9.7458 6.58752L5.19995 2.04166C4.97215 1.81386 4.6028 1.81386 4.37499 2.04166Z" fill="#B7B7B7"/>
<path d="M4.37499 2.04166C4.14719 2.26947 4.14719 2.63881 4.37499 2.86662L8.50837 7L4.37499 11.1334C4.14718 11.3612 4.14718 11.7305 4.37499 11.9583C4.60279 12.1861 4.97214 12.1861 5.19994 11.9583L9.7458 7.41248C9.97361 7.18467 9.97361 6.81533 9.7458 6.58752L5.19995 2.04166C4.97215 1.81386 4.6028 1.81386 4.37499 2.04166Z" stroke="#B7B7B7"/>
</svg>
