<svg width="34" height="34" viewBox="0 0 34 34" fill="none" xmlns="http://www.w3.org/2000/svg">
<rect width="34" height="34" fill="white"/>
<g clip-path="url(#clip0_261_1369)">
<path d="M22.3484 4.25896L20.055 6.55242C19.4446 7.16345 19.037 8.05521 19.037 8.91863V31.9163C19.037 32.5151 18.6166 32.9356 18.0184 32.9356L16.1962 33H15.9329C15.3348 33 14.8493 32.5151 14.8493 31.9163V28.3712L14.9781 27.8883L14.8493 27.4054V24.2479L14.9781 23.6202L14.8493 23.2821V22.952L14.7849 22.2899L14.8493 21.6566V17.3446L14.7849 16.7404L14.8493 16.0553V16.0018L14.9781 15.4824L14.8493 15.036V11.8791L14.9781 11.3962L14.8493 10.9133V8.91863C14.8493 8.05521 14.5068 7.22783 13.8964 6.6168L11.6673 4.38837C11.2443 3.96535 11.2443 3.27963 11.6673 2.85661L13.1418 1.38151C13.5648 0.958484 14.2505 0.958484 14.6742 1.38151C15.3097 2.017 16.1428 2.33508 16.976 2.33508C17.749 2.33508 18.5226 2.06079 19.138 1.51279C19.1854 1.47062 19.2318 1.49122 19.2772 1.44583L19.3422 1.38144C19.7652 0.95842 20.3866 0.894033 20.8096 1.31705L22.2841 2.79087C22.7077 3.21396 22.7721 3.83593 22.3484 4.25896V4.25896Z" fill="#F8F7F7"/>
<path d="M22.3485 4.32336L20.055 6.61682C19.4446 7.22785 19.1014 8.05522 19.1014 8.91865V9.1498L19.1658 9.36698L19.1014 9.65067V10.9134L18.4576 11.311L19.1014 11.8792V15.0361L18.4576 15.3831L19.1014 16.0019V16.1001L19.1658 16.8816L19.1014 17.3907V21.6107L19.1658 22.3042L19.1014 22.9112V23.2822L18.4576 23.7043L19.1014 24.248V27.4055L18.4576 27.8884L19.1014 28.3674V31.9165C19.1014 32.5153 18.6166 33.0001 18.0184 33.0001H16.0868C16.685 33.0001 17.1698 32.5153 17.1698 31.9165V8.91878C17.1698 8.05535 17.513 7.22798 18.1234 6.61695L20.4169 4.32349C20.8405 3.90047 20.8405 3.2141 20.4169 2.79108L19.1375 1.51236C19.1851 1.47115 19.2315 1.42737 19.2772 1.38165L19.3422 1.31727C19.7653 0.894245 20.451 0.894245 20.874 1.31727L22.3485 2.79108C22.7721 3.21398 22.7721 3.90034 22.3485 4.32336V4.32336Z" fill="#E1E1E1"/>
<path d="M14.8493 10.9134H18.4576V11.8792H14.8493V10.9134Z" fill="#E1E1E1"/>
<path d="M14.8493 15.036H18.4576V16.0018H14.8493V15.036Z" fill="#E1E1E1"/>
<path d="M14.8493 23.2821H18.4576V24.2479H14.8493V23.2821Z" fill="#E1E1E1"/>
<path d="M14.8493 27.4054H18.4576V28.3712H14.8493V27.4054Z" fill="#E1E1E1"/>
<path d="M17.1698 10.9134H19.1014V11.8792H17.1698V10.9134Z" fill="#CDCDCD"/>
<path d="M17.1698 15.036H19.1014V16.0018H17.1698V15.036Z" fill="#CDCDCD"/>
<path d="M17.1698 23.2821H19.1014V24.2479H17.1698V23.2821Z" fill="#CDCDCD"/>
<path d="M17.1698 27.4054H19.1014V28.3712H17.1698V27.4054Z" fill="#CDCDCD"/>
<path d="M25.7583 18.7561L24.6959 23.5179C24.0427 26.4453 21.8866 28.6268 19.1012 29.3867L19.1656 28.928L19.1012 28.6497V22.9111L19.7451 22.3485L19.1012 21.6106C18.5041 21.2069 17.7834 20.9705 17.0081 20.9705C16.2045 20.9705 15.4592 21.2245 14.8498 21.6566L14.206 22.2735L14.8498 22.952V29.4326C12.0951 28.6559 9.90453 26.4224 9.25596 23.5179L8.1937 18.7561C7.16828 14.1577 10.3344 9.77655 14.8499 9.15869V16.0552L14.206 16.4271L14.8499 17.3445C15.4593 17.7767 16.2046 18.0307 17.0082 18.0307C17.7834 18.0307 18.5042 17.7943 19.1013 17.3906L19.7452 16.7196L19.1013 16.1V9.65061L19.1657 9.46446L19.1013 9.21387C23.6513 9.79876 26.789 14.1355 25.7583 18.7561V18.7561Z" fill="#F47C7C"/>
<path d="M20.3973 13.4653C20.1306 13.4653 19.9144 13.6815 19.9144 13.9482C19.9144 14.7504 19.6197 15.5123 19.1012 16.1V17.3904C20.2169 16.5986 20.8802 15.3188 20.8802 13.9482C20.8802 13.6815 20.6641 13.4653 20.3973 13.4653Z" fill="#EE6161"/>
<path d="M14.0361 13.9034C14.0361 13.6366 13.82 13.4205 13.5532 13.4205C13.2865 13.4205 13.0703 13.6366 13.0703 13.9034C13.0703 15.2739 13.7336 16.5538 14.8493 17.3456V16.0552C14.3309 15.4675 14.0361 14.7055 14.0361 13.9034V13.9034Z" fill="#EE6161"/>
<path d="M14.8493 21.6577C13.7336 22.4495 13.0703 23.7293 13.0703 25.0998C13.0703 25.3666 13.2865 25.5827 13.5532 25.5827C13.82 25.5827 14.0361 25.3666 14.0361 25.0998C14.0361 24.2977 14.3309 23.5358 14.8493 22.948V21.6577Z" fill="#EE6161"/>
<path d="M19.1012 21.6107V22.901C19.6197 23.4888 19.9144 24.2507 19.9144 25.0528C19.9144 25.3195 20.1306 25.5357 20.3973 25.5357C20.6641 25.5357 20.8802 25.3195 20.8802 25.0528C20.8802 23.6823 20.2169 22.4025 19.1012 21.6107Z" fill="#EE6161"/>
<path d="M25.8228 18.7563L24.7604 23.5177C24.1069 26.4454 21.8868 28.6912 19.1014 29.451V28.6365C20.9493 27.549 22.3356 25.7275 22.8288 23.5177L23.8912 18.7563C24.7688 14.8229 22.5783 11.0486 19.1014 9.65267V9.14981C23.651 9.73438 26.8536 14.1353 25.8228 18.7563V18.7563Z" fill="#EE6161"/>
</g>
<defs>
<clipPath id="clip0_261_1369">
<rect width="33" height="33" fill="white"/>
</clipPath>
</defs>
</svg>
