<svg width="34" height="34" viewBox="0 0 34 34" fill="none" xmlns="http://www.w3.org/2000/svg">
<rect width="34" height="34" fill="white"/>
<g clip-path="url(#clip0_261_1374)">
<path d="M24.6826 10.895C23.084 5.75599 10.9172 5.75297 9.3174 10.895C4.31414 11.5872 0.498491 16.1203 5.00329 20.8267C5.1095 20.9377 5.18976 21.0584 5.24407 21.1827C4.16931 23.3721 7.2053 26.8208 9.48999 25.0943C11.7831 23.3606 9.2655 19.475 6.85771 19.9475C6.29288 19.2879 6.22288 18.0267 6.67486 17.0243C7.18901 15.8832 8.41101 15.1271 9.80258 15.0836C10.2298 17.9663 12.1259 20.3747 14.7171 21.5152C15.2023 24.1228 14.7437 26.4539 14.3363 28.4055C14.0823 29.6191 15.0086 30.7584 16.2475 30.7608H17.7483C18.989 30.7608 19.9177 29.6203 19.6637 28.4055C19.2563 26.4539 18.7977 24.1228 19.2829 21.5152C21.8741 20.3747 23.7702 17.9663 24.1974 15.0836C25.589 15.1271 26.811 15.8832 27.3251 17.0243C27.7771 18.0267 27.7071 19.2879 27.1423 19.9475C24.7345 19.475 22.2169 23.3606 24.51 25.0943C26.7947 26.8208 29.8307 23.3721 28.7559 21.1827C28.8102 21.0584 28.8905 20.9377 28.9967 20.8267C33.5015 16.1203 29.6859 11.5872 24.6826 10.895V10.895Z" fill="#FF6D7A"/>
<path d="M16.1973 29.6658C16.0892 30.3453 15.2502 30.621 14.792 30.1077C14.3967 29.6649 14.2024 29.0455 14.3363 28.4054C14.6509 26.8984 14.996 25.165 14.9133 23.2528C14.8863 22.628 15.5404 22.197 16.095 22.4858C16.1375 22.5079 16.1801 22.5296 16.223 22.5511C16.457 22.6678 16.621 22.8917 16.6595 23.1502C17.0935 26.06 16.3726 28.5634 16.1973 29.6658V29.6658Z" fill="#FF8C95"/>
<path d="M12.2199 19.8224C11.4978 19.1135 10.9042 18.2753 10.4762 17.3457C10.2907 16.943 10.5216 16.4723 10.9549 16.3783C11.3552 16.2915 11.7062 16.5403 11.7855 16.8935C11.985 17.7829 12.3261 18.6192 12.7841 19.3773C13.0048 19.7425 12.5245 20.1213 12.2199 19.8224V19.8224Z" fill="#FF8C95"/>
<path d="M18.87 8.25718C15.7469 8.38011 12.7389 9.56608 11.8331 11.8159C11.7625 11.9915 11.6069 12.1181 11.4203 12.1502C7.33722 12.8518 4.1631 16.1135 5.89882 19.8785C5.99936 20.0966 5.9369 20.352 5.75791 20.512C5.54694 20.7006 5.37206 20.9216 5.24413 21.1829C5.18982 21.0585 5.10956 20.9378 5.00335 20.8268C0.498552 16.1205 4.3142 11.5873 9.31746 10.8951C10.2687 7.83814 14.9545 6.59955 18.934 7.17742C19.5877 7.27216 19.53 8.23118 18.87 8.25718V8.25718Z" fill="#FF8C95"/>
<path d="M17 25.3297C16.7334 25.3297 16.5172 25.1135 16.5172 24.8469V19.2951C16.5172 19.0285 16.7334 18.8123 17 18.8123C17.2666 18.8123 17.4828 19.0285 17.4828 19.2951V24.8469C17.4828 25.1135 17.2666 25.3297 17 25.3297Z" fill="#E84857"/>
<path d="M24.8444 13.4416C24.5673 13.4416 24.4856 13.2189 23.6605 12.932C23.0981 12.7367 22.5708 12.6632 21.9803 12.6589C21.7146 12.6589 21.4987 12.4441 21.4976 12.1782C21.4964 11.9116 21.7117 11.6945 21.9783 11.6934C23.1048 11.6897 24.1566 11.9778 25.0949 12.5458C25.323 12.6839 25.3959 12.9808 25.2579 13.2088C25.1672 13.3587 25.0077 13.4416 24.8444 13.4416Z" fill="#E84857"/>
<path d="M8.74212 13.2088C8.60399 12.9808 8.67695 12.684 8.90506 12.5458C9.85834 11.9686 10.9206 11.6878 12.0217 11.6934C12.2883 11.6945 12.5036 11.9115 12.5024 12.1782C12.5013 12.4441 12.2854 12.6589 12.0197 12.6589C11.1217 12.6491 10.2148 12.8816 9.40502 13.3718C9.17752 13.5097 8.88044 13.4373 8.74212 13.2088V13.2088Z" fill="#E84857"/>
<path d="M22.0244 12.6251C22.0226 14.1796 21.754 18.6717 17 19.2951C12.3166 18.6808 11.9949 14.2032 11.9786 12.6372C11.9378 8.58015 22.0244 8.56235 22.0244 12.6251V12.6251Z" fill="#E84857"/>
<path d="M28.7559 21.1827C29.8307 23.3721 26.7947 26.8208 24.51 25.0943C22.2169 23.3606 24.7345 19.4749 27.1423 19.9475C27.8136 20.0776 28.4543 20.5671 28.7559 21.1827V21.1827Z" fill="#FFEBD2"/>
<path d="M25.4798 24.7423C25.576 25.148 25.1354 25.4771 24.7738 25.2693C21.8609 23.5953 25.0001 18.8533 27.6554 20.1187C28.0326 20.2984 28.0152 20.8429 27.6281 21C26.2334 21.5659 25.1409 23.3114 25.4798 24.7423Z" fill="#FFF3E4"/>
<path d="M6.85771 19.9475C9.2655 19.4749 11.7831 23.3606 9.48999 25.0943C7.2053 26.8208 4.16932 23.3721 5.24407 21.1827C5.54483 20.5687 6.18474 20.078 6.85771 19.9475V19.9475Z" fill="#FFEBD2"/>
<path d="M8.22376 20.1109C8.61407 20.2763 8.60424 20.8291 8.21531 20.9978C7.05034 21.503 6.46824 22.7719 7.07508 24.2474C7.26951 24.7201 6.70166 25.1383 6.31605 24.8029C4.97692 23.6381 4.41076 21.518 5.9235 20.3753C6.64964 19.8263 7.47258 19.7927 8.22376 20.1109Z" fill="#FFF3E4"/>
<path d="M26.2931 11.4502C28.5594 11.4502 30.3966 9.613 30.3966 7.3467C30.3966 5.08039 28.5594 3.24319 26.2931 3.24319C24.0268 3.24319 22.1896 5.08039 22.1896 7.3467C22.1896 9.613 24.0268 11.4502 26.2931 11.4502Z" fill="#CBE3FA"/>
<path d="M28.0034 3.61541C28.4296 3.81111 28.3592 4.43635 27.8994 4.5285C25.2663 5.05628 23.8572 7.93217 25.0044 10.3246C25.2075 10.7482 24.7454 11.1772 24.3328 10.9525C23.0326 10.2444 22.1582 8.85341 22.1906 7.26119C22.2498 4.3442 25.311 2.37911 28.0034 3.61541V3.61541Z" fill="#EEF7FF"/>
<path d="M27.8017 6.86393H26.7759V5.83805C26.7759 5.57144 26.5597 5.35529 26.2931 5.35529C26.0265 5.35529 25.8103 5.57144 25.8103 5.83805V6.86393H24.7845C24.5179 6.86393 24.3017 7.08008 24.3017 7.34669C24.3017 7.6133 24.5179 7.82946 24.7845 7.82946H25.8103V8.85533C25.8103 9.12194 26.0265 9.3381 26.2931 9.3381C26.5597 9.3381 26.7759 9.12194 26.7759 8.85533V7.82946H27.8017C28.0683 7.82946 28.2845 7.6133 28.2845 7.34669C28.2845 7.08008 28.0683 6.86393 27.8017 6.86393Z" fill="#FF6D7A"/>
</g>
<defs>
<clipPath id="clip0_261_1374">
<rect width="28" height="28" fill="white" transform="translate(3 3)"/>
</clipPath>
</defs>
</svg>
