<svg width="34" height="34" viewBox="0 0 34 34" fill="none" xmlns="http://www.w3.org/2000/svg">
<rect width="34" height="34" fill="white"/>
<g clip-path="url(#clip0_261_1368)">
<path d="M28.1799 6.81164C27.7942 5.99246 26.786 5.82873 26.1894 6.47971C24.0638 8.80045 21.913 6.9092 18.8134 9.20976C18.7315 9.27032 18.6525 9.33424 18.5762 9.40152C17.6718 9.14472 16.7573 8.99557 15.8529 8.94735C16.3361 7.45454 16.4055 5.86579 15.9962 4.30009C15.9478 4.11506 15.7743 3.99053 15.5834 4.00057L14.1987 4.07379C13.946 4.08714 13.7702 4.32572 13.8264 4.57237C14.1769 6.11015 13.9741 7.66856 13.3079 9.07519C6.19936 10.1848 0.815505 17.5076 6.94565 27.1247C8.1381 28.9951 10.6725 29.0186 11.8938 27.1746C11.8938 27.1746 12.7523 25.8794 12.7562 25.8727C13.3141 25.0333 14.0963 24.3868 14.9979 23.9932C16.9305 25.2196 18.1652 27.3126 18.2891 29.6167C18.3006 29.8315 18.4777 30 18.6929 30H20.1895C20.4131 30 20.5943 29.8188 20.5943 29.5952C20.5943 27.012 19.4437 24.6061 17.525 22.9862C18.7599 22.3052 19.8197 21.3489 20.6436 20.1675C20.7177 20.1535 20.7917 20.1345 20.8651 20.1104C26.7435 18.1686 30.8462 12.4807 28.1799 6.81164V6.81164Z" fill="#FF6D7A"/>
<path d="M8.97307 26.019C9.6047 27.3154 7.75181 28.3916 6.94557 27.1247C0.166359 16.4894 7.48211 8.58173 15.7285 8.94158C16.0759 8.95672 16.3606 9.2235 16.4027 9.56878C16.447 9.93206 16.21 10.2723 15.8527 10.3515C8.58473 11.9621 5.67895 19.258 8.97307 26.019V26.019Z" fill="#FF8C95"/>
<path d="M20.5942 29.5952C20.5942 29.8187 20.4129 30 20.1894 30H18.6928C18.4776 30 18.3005 29.8315 18.289 29.6166C18.1651 27.3126 16.9304 25.2196 14.9978 23.9932C15.7009 23.6868 16.3043 23.6582 17.5249 22.9862C19.4436 24.606 20.5942 27.012 20.5942 29.5952V29.5952Z" fill="#FF8C95"/>
<path d="M19.7782 29.4952C19.8125 29.7631 19.6027 30 19.3327 30H18.6929C18.4775 30 18.3003 29.832 18.289 29.6167C18.1651 27.3127 16.9306 25.2195 14.9978 23.9932C15.394 23.8206 15.7583 23.736 16.2193 23.5752C16.369 23.5231 16.5354 23.5532 16.6568 23.6551C18.3541 25.0803 19.4811 27.1759 19.7782 29.4952Z" fill="#FFAEB5"/>
<path d="M15.9961 4.3001C16.4056 5.86586 16.3362 7.4546 15.8529 8.94736C14.9911 8.90138 14.1377 8.94624 13.3079 9.0752C13.974 7.66857 14.1768 6.11015 13.8263 4.57237C13.7701 4.32567 13.9459 4.08714 14.1986 4.0738L15.5833 4.00057C15.7743 3.99048 15.9478 4.11507 15.9961 4.3001V4.3001Z" fill="#FE4F60"/>
<path d="M14.4026 8.95531C14.0339 8.97914 13.6686 9.01918 13.3079 9.07519C13.974 7.66839 14.1768 6.11037 13.8263 4.57237C13.7697 4.32566 13.9457 4.08725 14.1986 4.07379L14.6273 4.05114C14.8554 4.03908 15.0552 4.20062 15.0938 4.42574C15.3387 5.85335 15.2274 7.28605 14.8013 8.6444C14.7461 8.82058 14.5868 8.94343 14.4026 8.95531V8.95531Z" fill="#FF6D7A"/>
<path d="M28.1799 6.81165C30.8467 12.4816 26.7366 18.1709 20.865 20.1104C20.1379 20.3491 19.3656 20.0847 18.8964 19.4605C17.2496 17.2687 16.6502 14.3553 17.2771 11.6112C17.5035 10.6188 18.0616 9.76587 18.8134 9.20977C21.913 6.90921 24.0638 8.80045 26.1894 6.47971C26.786 5.82874 27.7941 5.99246 28.1799 6.81165V6.81165Z" fill="#FF8C95"/>
<path d="M28.1832 6.81865C28.3886 7.25594 28.2564 7.77902 27.8659 8.06358C25.5552 9.74748 23.9598 8.17617 21.0562 10.3312C20.3036 10.8879 19.7461 11.7413 19.5199 12.7327C19.0528 14.7778 19.2666 16.9167 20.0872 18.7808C20.4126 19.5199 19.4023 20.1183 18.9099 19.4783C17.3269 17.4207 16.6251 14.4654 17.2771 11.6113C17.5031 10.6209 18.0601 9.76705 18.8134 9.20982C21.913 6.90926 24.0639 8.80051 26.1895 6.47977C26.782 5.83322 27.7914 5.98439 28.1832 6.81865V6.81865Z" fill="#FFAEB5"/>
<path d="M25.9152 21.1409C28.021 21.1409 29.728 19.4339 29.728 17.3282C29.728 15.2224 28.021 13.5154 25.9152 13.5154C23.8095 13.5154 22.1025 15.2224 22.1025 17.3282C22.1025 19.4339 23.8095 21.1409 25.9152 21.1409Z" fill="#CBE3FA"/>
<path d="M27.5043 13.8612C27.9004 14.0431 27.8349 14.624 27.4077 14.7096C24.9612 15.2 23.6519 17.8721 24.7178 20.095C24.9065 20.4887 24.4771 20.8873 24.0938 20.6785C22.8857 20.0206 22.0732 18.7281 22.1033 17.2487C22.1584 14.5384 25.0027 12.7126 27.5043 13.8612V13.8612Z" fill="#EEF7FF"/>
<path d="M27.317 16.8796H26.3638V15.9264C26.3638 15.6787 26.1629 15.4778 25.9152 15.4778C25.6675 15.4778 25.4667 15.6787 25.4667 15.9264V16.8796H24.5135C24.2658 16.8796 24.0649 17.0804 24.0649 17.3282C24.0649 17.5759 24.2658 17.7767 24.5135 17.7767H25.4667V18.7299C25.4667 18.9776 25.6675 19.1785 25.9152 19.1785C26.1629 19.1785 26.3638 18.9776 26.3638 18.7299V17.7767H27.317C27.5647 17.7767 27.7655 17.5759 27.7655 17.3282C27.7655 17.0804 27.5647 16.8796 27.317 16.8796V16.8796Z" fill="#FF6D7A"/>
</g>
<defs>
<clipPath id="clip0_261_1368">
<rect width="26" height="26" fill="white" transform="translate(4 4)"/>
</clipPath>
</defs>
</svg>
