<svg width="34" height="34" viewBox="0 0 34 34" fill="none" xmlns="http://www.w3.org/2000/svg">
<rect width="34" height="34" fill="white"/>
<g clip-path="url(#clip0_261_1377)">
<path d="M17.0234 4.21763C9.63168 3.87261 3.35985 9.58505 3.01482 16.9767C2.685 24.0433 7.89169 30.0857 14.8089 30.9051L16.4527 30.9999C23.5458 30.977 29.448 25.3904 29.7824 18.2261C30.1275 10.8345 24.415 4.56265 17.0234 4.21763V4.21763Z" fill="#6B61B1"/>
<path d="M26.1047 25.2866C25.9878 25.2866 25.871 25.242 25.7818 25.1528L24.4718 23.8428C24.2935 23.6644 24.2935 23.3753 24.4718 23.197C24.6502 23.0186 24.9393 23.0186 25.1177 23.197L26.4276 24.507C26.606 24.6853 26.606 24.9745 26.4276 25.1528C26.3384 25.242 26.2216 25.2866 26.1047 25.2866V25.2866Z" fill="#FCE6D6"/>
<path d="M30.6879 29.4132C30.2718 29.8293 29.5972 29.8293 29.181 29.4132L25.9216 26.1538C25.5055 25.7377 25.5055 25.063 25.9216 24.6469C26.3377 24.2308 27.0124 24.2308 27.4285 24.6469L30.6879 27.9064C31.104 28.3225 31.104 28.9971 30.6879 29.4132Z" fill="#26C6F7"/>
<path d="M28.0374 26.7763C28.3728 26.4409 28.8579 26.3483 29.2774 26.4958L27.4285 24.6469C27.0124 24.2308 26.3377 24.2308 25.9216 24.6469C25.5055 25.063 25.5055 25.7377 25.9216 26.1538L27.7421 27.9743C27.6152 27.5648 27.7131 27.1005 28.0374 26.7763V26.7763Z" fill="#00ADF4"/>
<path d="M15.631 28.0444C15.5319 28.5449 15.223 28.9676 14.809 29.2389V30.9051C15.1272 30.9428 15.4488 30.9701 15.774 30.9852C16.0014 30.9958 16.2278 31.0006 16.4529 30.9999V29.2388C16.0388 28.9676 15.73 28.5449 15.631 28.0444Z" fill="#E80054"/>
<path d="M15.631 3.00006C15.631 3.00006 4.97598 3.00001 4.97598 10.3469C4.97598 14.4075 6.98574 17.0967 8.80804 18.7003C8.91616 18.7955 9.02482 18.8857 9.1337 18.9717C9.58214 18.3565 10.2915 17.9414 11.0933 17.8955C11.6019 17.8664 12.0808 17.9831 12.4929 18.2073C12.8464 18.3998 13.2642 18.4207 13.6499 18.3054C13.8501 18.2456 14.0674 18.2253 14.2928 18.2536C14.994 18.3415 15.5537 18.9107 15.631 19.6131C15.7082 18.9107 16.268 18.3415 16.9691 18.2536C17.1945 18.2253 17.4118 18.2456 17.6121 18.3054C17.9977 18.4207 18.4155 18.3998 18.769 18.2073C19.1811 17.9831 19.6601 17.8664 20.1685 17.8955C20.9704 17.9414 21.6797 18.3565 22.1282 18.9717C22.237 18.8857 22.3457 18.7956 22.4538 18.7003C24.2761 17.0967 26.2859 14.4075 26.2859 10.3469C26.2859 3.00006 15.631 3.00006 15.631 3.00006V3.00006Z" fill="#FF7186"/>
<path d="M14.2928 18.2535C14.9939 18.3415 15.5537 18.9107 15.631 19.6131C15.7082 18.9107 16.268 18.3415 16.9691 18.2535C17.1945 18.2252 17.4118 18.2456 17.6121 18.3054C17.9977 18.4206 18.4155 18.3997 18.769 18.2073C19.0114 18.0754 19.2771 17.9811 19.5582 17.9314L17.9698 15.6816C17.9389 15.6378 17.8951 15.6043 17.8444 15.5866C17.2377 15.3751 17.2481 14.6927 17.2992 14.335C17.3161 14.2169 17.25 14.1048 17.1408 14.0568C16.9071 13.9543 16.8729 13.7545 16.8863 13.6022C16.8962 13.4908 16.835 13.3845 16.7323 13.3401C16.3459 13.1728 16.3214 12.7996 16.3512 12.5598C16.3668 12.4346 16.2885 12.3155 16.1673 12.2804C12.5231 11.2231 12.9841 6.79003 13.1481 5.73702C13.1668 5.61682 13.1006 5.49804 12.9869 5.45483C12.0837 5.11167 12.1039 3.83236 12.1255 3.49604C12.1272 3.46946 12.1246 3.44299 12.1182 3.41745C9.01388 4.08568 4.97598 5.82414 4.97598 10.347C4.97598 14.4076 6.9858 17.0967 8.80804 18.7004C8.91616 18.7955 9.02482 18.8857 9.1337 18.9717C9.58214 18.3565 10.2915 17.9414 11.0933 17.8955C11.6019 17.8665 12.0808 17.9831 12.4929 18.2074C12.8464 18.3998 13.2642 18.4207 13.6499 18.3055C13.8501 18.2456 14.0674 18.2252 14.2928 18.2535Z" fill="#FF4155"/>
<path d="M15.631 28.0444C15.7981 28.8887 16.5622 29.5119 17.4215 29.5595C18.6546 29.6279 19.5035 28.585 19.4344 27.5203C19.4014 27.0109 19.7016 26.5403 20.1731 26.3447C21.2123 25.9134 21.7936 24.7152 21.4678 23.6222C21.3373 23.1847 21.4771 22.717 21.8091 22.4035C22.3501 21.8927 22.6731 21.1536 22.6233 20.3399C22.5431 19.0302 21.4787 17.9705 20.1686 17.8956C19.6601 17.8665 19.1811 17.9831 18.769 18.2074C18.4155 18.3998 17.9977 18.4207 17.6121 18.3055C17.4118 18.2457 17.1945 18.2253 16.9691 18.2536C16.268 18.3415 15.7082 18.9108 15.631 19.6132V28.0444Z" fill="#F4E398"/>
<path d="M15.631 28.0444C15.4638 28.8887 14.6997 29.5119 13.8404 29.5595C12.6073 29.6279 11.7584 28.585 11.8275 27.5203C11.8605 27.0109 11.5603 26.5403 11.0888 26.3447C10.0497 25.9134 9.46828 24.7152 9.79416 23.6222C9.92459 23.1847 9.78486 22.717 9.45286 22.4035C8.91183 21.8927 8.58885 21.1536 8.63861 20.3399C8.71879 19.0302 9.78322 17.9705 11.0933 17.8956C11.6019 17.8665 12.0808 17.9831 12.4929 18.2074C12.8464 18.3998 13.2642 18.4207 13.6498 18.3055C13.8501 18.2457 14.0674 18.2253 14.2928 18.2536C14.994 18.3415 15.5537 18.9108 15.631 19.6132V28.0444Z" fill="#FFDD40"/>
<path d="M14.5042 27.5203C14.5373 27.0109 14.2371 26.5404 13.7656 26.3446C12.7264 25.9133 12.145 24.7152 12.4709 23.6222C12.6013 23.1846 12.4616 22.7169 12.1296 22.4035C11.5886 21.8927 11.2656 21.1535 11.3154 20.3399C11.3694 19.4564 11.8717 18.6872 12.5948 18.2568C12.5604 18.2416 12.5262 18.2255 12.4929 18.2074C12.0809 17.9831 11.6019 17.8665 11.0933 17.8955C9.78323 17.9704 8.71879 19.0301 8.63862 20.3399C8.5888 21.1535 8.91178 21.8927 9.4528 22.4035C9.78481 22.7169 9.92459 23.1846 9.79411 23.6222C9.46823 24.7152 10.0497 25.9133 11.0888 26.3446C11.5604 26.5404 11.8605 27.0108 11.8275 27.5203C11.7584 28.585 12.6073 29.6279 13.8404 29.5595C14.3095 29.5335 14.7499 29.3358 15.0806 29.0244C14.6861 28.6349 14.4679 28.0807 14.5042 27.5203Z" fill="#FFB332"/>
<path d="M17.1262 16.6276C17.3687 16.4643 17.6607 16.369 17.975 16.369C18.2384 16.369 18.4861 16.436 18.7021 16.5538C18.9193 16.6723 19.1918 16.6453 19.3744 16.4784C19.6449 16.2312 20.0049 16.0804 20.4002 16.0804C20.6308 16.0804 20.8493 16.1318 21.0451 16.2236C21.3218 16.3534 21.6481 16.2807 21.8353 16.039C22.0351 15.781 22.3118 15.5859 22.6307 15.4876C22.8139 15.4312 22.9116 15.2375 22.8631 15.0521C22.8293 14.9225 22.8112 14.7865 22.8112 14.6463C22.8112 14.0266 23.1629 13.4893 23.6775 13.2225C23.8685 13.1235 23.9418 12.8886 23.8306 12.7043C23.685 12.4629 23.6012 12.1801 23.6012 11.8776C23.6012 11.4623 23.7593 11.0839 24.0184 10.7993C24.1531 10.6513 24.1333 10.4222 23.9785 10.2954C23.6195 10.0015 23.3903 9.55493 23.3903 9.05475C23.3903 8.86209 23.4243 8.67741 23.4867 8.50624C23.5491 8.33468 23.4548 8.13376 23.2844 8.06825C22.7875 7.87722 22.4082 7.44568 22.2928 6.91379C22.2522 6.72654 22.0627 6.60722 21.8764 6.65211C21.7557 6.68121 21.6296 6.69668 21.4999 6.69668C20.871 6.69668 20.327 6.33449 20.0644 5.80741C19.9809 5.63974 19.7839 5.55875 19.6131 5.63575C19.4126 5.72615 19.1901 5.77651 18.9558 5.77651C18.4702 5.77651 18.0351 5.56055 17.7412 5.21952C17.619 5.07772 17.408 5.05086 17.2504 5.15193C16.6911 5.51084 16.0115 5.57007 15.6309 5.57007C15.2503 5.57007 14.5707 5.51084 14.0114 5.15193C13.8538 5.05086 13.6428 5.07772 13.5206 5.21952C13.2266 5.56055 12.7916 5.77651 12.306 5.77651C12.0717 5.77651 11.8492 5.72615 11.6487 5.63575C11.4779 5.55875 11.2809 5.63974 11.1974 5.80741C10.9349 6.33449 10.3909 6.69668 9.76195 6.69668C9.63228 6.69668 9.50617 6.68121 9.38548 6.65211C9.19916 6.60722 9.00967 6.72649 8.96903 6.91379C8.8537 7.44568 8.47439 7.87722 7.97744 8.06825C7.80709 8.13376 7.71275 8.33468 7.77521 8.50624C7.83749 8.67736 7.87151 8.86209 7.87151 9.05475C7.87151 9.55498 7.64232 10.0015 7.28329 10.2954C7.12847 10.4222 7.10867 10.6513 7.24337 10.7993C7.50259 11.084 7.66064 11.4623 7.66064 11.8776C7.66064 12.1801 7.57685 12.4629 7.43128 12.7043C7.32015 12.8886 7.39332 13.1235 7.58435 13.2225C8.09896 13.4893 8.45065 14.0266 8.45065 14.6463C8.45065 14.7865 8.4326 14.9226 8.39875 15.0522C8.3503 15.2376 8.44792 15.4312 8.63107 15.4876C8.95 15.5858 9.22678 15.781 9.42655 16.039C9.61374 16.2807 9.94001 16.3534 10.2168 16.2236C10.4126 16.1318 10.6311 16.0804 10.8617 16.0804C11.257 16.0804 11.617 16.2312 11.8875 16.4784C12.0701 16.6453 12.3426 16.6723 12.5598 16.5538C12.7758 16.436 13.0235 16.369 13.2868 16.369C13.6012 16.369 13.8932 16.4643 14.1357 16.6276C14.3297 16.7581 14.5881 16.7581 14.782 16.6276C15.0245 16.4643 15.3166 16.369 15.6309 16.369C15.9452 16.369 16.2373 16.4643 16.4798 16.6276C16.6738 16.7581 16.9322 16.7581 17.1262 16.6276V16.6276Z" fill="#FF4155"/>
<path d="M14.7821 16.6275C15.0246 16.4642 15.3166 16.369 15.631 16.369C15.9453 16.369 16.2373 16.4643 16.4798 16.6275C16.6738 16.7581 16.9322 16.7581 17.1262 16.6275C17.3687 16.4642 17.6607 16.369 17.9751 16.369C18.1705 16.369 18.3572 16.406 18.5288 16.4732L17.9699 15.6816C17.9389 15.6378 17.8951 15.6043 17.8444 15.5866C17.2377 15.3751 17.2481 14.6927 17.2992 14.335C17.3161 14.2169 17.2501 14.1048 17.1408 14.0569C16.9072 13.9543 16.8729 13.7545 16.8864 13.6022C16.8962 13.4908 16.835 13.3845 16.7324 13.3401C16.3459 13.1728 16.3214 12.7996 16.3512 12.5598C16.3668 12.4346 16.2885 12.3155 16.1673 12.2804C12.5231 11.2231 12.9841 6.79003 13.1482 5.73702C13.1581 5.67348 13.1437 5.61069 13.1117 5.55896C12.875 5.69699 12.5998 5.77645 12.306 5.77645C12.0717 5.77645 11.8493 5.72608 11.6487 5.63569C11.4779 5.55869 11.281 5.63968 11.1975 5.80735C10.9349 6.33443 10.3909 6.69662 9.762 6.69662C9.63234 6.69662 9.50623 6.68115 9.38553 6.65205C9.19921 6.60716 9.00972 6.72643 8.96909 6.91373C8.85375 7.44562 8.47444 7.87716 7.97749 8.06819C7.80714 8.1337 7.71281 8.33462 7.77526 8.50618C7.83755 8.6773 7.87156 8.86203 7.87156 9.05469C7.87156 9.55492 7.64237 10.0014 7.28334 10.2953C7.12852 10.4221 7.10867 10.6512 7.24342 10.7992C7.50264 11.0839 7.66069 11.4622 7.66069 11.8776C7.66069 12.18 7.57691 12.4629 7.43133 12.7043C7.3202 12.8885 7.39338 13.1234 7.5844 13.2225C8.09901 13.4892 8.4507 14.0265 8.4507 14.6462C8.4507 14.7864 8.43266 14.9225 8.39881 15.0521C8.35035 15.2375 8.44797 15.4311 8.63112 15.4875C8.95006 15.5857 9.22683 15.781 9.4266 16.0389C9.6138 16.2806 9.94006 16.3533 10.2168 16.2235C10.4126 16.1317 10.6311 16.0803 10.8617 16.0803C11.257 16.0803 11.6171 16.2312 11.8875 16.4784C12.0701 16.6452 12.3426 16.6723 12.5598 16.5538C12.7758 16.436 13.0235 16.3689 13.2869 16.3689C13.6012 16.3689 13.8933 16.4642 14.1357 16.6275C14.3297 16.7581 14.5881 16.7581 14.7821 16.6275V16.6275Z" fill="#E80054"/>
<path d="M19.83 25.6518C23.7494 25.6518 26.9266 22.4746 26.9266 18.5553C26.9266 14.6359 23.7494 11.4587 19.83 11.4587C15.9107 11.4587 12.7335 14.6359 12.7335 18.5553C12.7335 22.4746 15.9107 25.6518 19.83 25.6518Z" fill="#FFF5EE"/>
<path d="M23.6255 24.3898C23.1559 24.2663 23.1135 23.8926 23.1423 23.6437C23.1558 23.5266 23.0887 23.4162 22.9795 23.3717C22.7729 23.2875 22.7462 23.0757 22.7595 22.9145C22.7692 22.7974 22.6944 22.6907 22.5838 22.6511C21.879 22.3982 21.9369 21.7853 21.9938 21.5346C22.0105 21.4615 21.9964 21.3847 21.953 21.3234L17.9699 15.6816C17.9389 15.6378 17.8951 15.6043 17.8444 15.5867C17.2377 15.3751 17.2481 14.6927 17.2992 14.3351C17.3161 14.217 17.2501 14.1048 17.1408 14.0569C16.9072 13.9543 16.8729 13.7546 16.8864 13.6023C16.8962 13.4909 16.835 13.3846 16.7324 13.3401C16.3459 13.1729 16.3214 12.7997 16.3512 12.5599C16.3588 12.4988 16.3438 12.4393 16.3127 12.3902C15.7758 12.697 15.2703 13.079 14.812 13.5372C12.0406 16.3086 12.0406 20.8019 14.812 23.5733C17.2428 26.0041 20.9981 26.3026 23.7545 24.4693C23.7208 24.4319 23.6769 24.4033 23.6255 24.3898V24.3898Z" fill="#FCE6D6"/>
<path d="M19.83 24.0652C22.8731 24.0652 25.34 21.5983 25.34 18.5553C25.34 15.5122 22.8731 13.0453 19.83 13.0453C16.787 13.0453 14.3201 15.5122 14.3201 18.5553C14.3201 21.5983 16.787 24.0652 19.83 24.0652Z" fill="#FFDD40"/>
<path d="M15.9339 22.4514C17.7981 24.3156 20.6657 24.5643 22.798 23.1984C22.7572 23.1084 22.7521 23.0037 22.7595 22.9145C22.7692 22.7974 22.6943 22.6907 22.5838 22.6511C21.8789 22.3982 21.9368 21.7853 21.9938 21.5347C22.0104 21.4615 21.9963 21.3848 21.953 21.3235L17.9698 15.6816C17.9389 15.6378 17.8951 15.6043 17.8444 15.5867C17.2377 15.3751 17.2481 14.6928 17.2992 14.3351C17.3161 14.217 17.25 14.1049 17.1408 14.0569C17.0337 14.0099 16.9689 13.9424 16.9309 13.8686C16.5765 14.0882 16.2415 14.3516 15.9339 14.6592C13.7821 16.8109 13.7821 20.2996 15.9339 22.4514V22.4514Z" fill="#FFB332"/>
<path d="M24.0162 14.3692C21.708 12.061 17.9522 12.0609 15.6439 14.3692C13.3304 16.6826 13.33 20.4274 15.6439 22.7414C17.9521 25.0496 21.7078 25.0497 24.0162 22.7414C26.3244 20.4331 26.3244 16.6774 24.0162 14.3692ZM23.4361 22.1613C21.4477 24.1497 18.2123 24.1497 16.2239 22.1613C14.2309 20.1683 14.2307 16.9424 16.2239 14.9492C18.2123 12.9609 21.4476 12.9607 23.4361 14.9492C25.4245 16.9376 25.4245 20.1729 23.4361 22.1613Z" fill="#FCE6D6"/>
<path d="M22.9795 23.3717C22.7729 23.2875 22.7462 23.0757 22.7595 22.9145C22.7643 22.8572 22.7485 22.8026 22.7186 22.7569C20.733 24.1231 17.9881 23.9255 16.224 22.1613C14.231 20.1683 14.2307 16.9424 16.224 14.9492C16.5398 14.6334 16.8871 14.3682 17.2558 14.1528C17.2278 14.1118 17.1888 14.0779 17.1408 14.0568C16.9072 13.9542 16.8729 13.7545 16.8864 13.6022C16.8915 13.5442 16.8771 13.4879 16.8479 13.4407C16.4175 13.6915 16.0122 14.0007 15.6439 14.3691C13.3304 16.6825 13.33 20.4274 15.6439 22.7414C17.6697 24.7671 20.8103 25.0148 23.109 23.4847C23.0804 23.4351 23.0356 23.3946 22.9795 23.3717Z" fill="#B8C0F4"/>
<path d="M22.3026 19.2167C22.3142 19.173 22.3489 19.1384 22.3936 19.1311C23.0696 19.0206 23.5788 18.3417 23.3811 17.6038C23.1836 16.8667 22.4029 16.5318 21.7615 16.775C21.7193 16.7909 21.6721 16.7785 21.6402 16.7466C21.6397 16.7461 21.6392 16.7456 21.6387 16.7451C21.6068 16.7132 21.5943 16.666 21.6103 16.6238C21.8532 15.9827 21.5194 15.2019 20.7816 15.0042C20.0423 14.8062 19.3654 15.3167 19.2546 15.9917C19.2473 16.0364 19.2128 16.0711 19.169 16.0826C19.1679 16.0829 19.1667 16.0832 19.1655 16.0836C19.122 16.0951 19.075 16.0823 19.0465 16.0475C18.6126 15.5163 17.77 15.4163 17.2305 15.9558C16.6929 16.4934 16.7889 17.3378 17.3219 17.7726C17.3568 17.8011 17.3696 17.8481 17.3582 17.8917C17.358 17.8923 17.3578 17.893 17.3577 17.8937C17.3461 17.9374 17.3113 17.972 17.2667 17.9792C16.5886 18.0896 16.0819 18.7712 16.279 19.5069C16.4762 20.243 17.2564 20.5797 17.8988 20.3358C17.941 20.3198 17.9883 20.3323 18.0202 20.3642C18.0206 20.3646 18.0209 20.365 18.0213 20.3653C18.0532 20.3972 18.0657 20.4445 18.0497 20.4867C17.8059 21.129 18.1423 21.9092 18.8786 22.1064C19.617 22.3043 20.2951 21.7946 20.4057 21.1189C20.4131 21.0743 20.4476 21.0395 20.4913 21.028C20.4925 21.0277 20.4937 21.0274 20.4949 21.0271C20.5384 21.0155 20.5854 21.0283 20.6139 21.0632C21.0476 21.5939 21.8897 21.6949 22.4297 21.1549C22.9681 20.6165 22.8702 19.773 22.3381 19.3389C22.3032 19.3104 22.2904 19.2634 22.302 19.2198C22.3021 19.2187 22.3024 19.2177 22.3026 19.2167V19.2167Z" fill="#FF4155"/>
<path d="M22.338 19.3388C22.3213 19.3252 22.31 19.3072 22.3036 19.2875C22.2649 19.3023 22.2348 19.3346 22.228 19.3761C22.1137 20.0738 21.4136 20.6 20.6511 20.3958C19.8908 20.1921 19.5435 19.3864 19.7952 18.7233C19.8118 18.6797 19.7989 18.6309 19.7659 18.5979C19.7655 18.5975 19.7652 18.5972 19.7648 18.5968C19.7318 18.5638 19.683 18.5509 19.6394 18.5675C18.9762 18.8192 18.1706 18.4715 17.9669 17.7116C17.7634 16.9518 18.2866 16.2481 18.9867 16.1341C19.0243 16.128 19.0543 16.1027 19.0709 16.0693C19.0618 16.0634 19.0535 16.0561 19.0464 16.0474C18.6125 15.5163 17.7699 15.4163 17.2304 15.9557C16.6928 16.4933 16.7887 17.3377 17.3218 17.7726C17.3567 17.8011 17.3695 17.848 17.358 17.8916C17.3579 17.8923 17.3577 17.8929 17.3575 17.8936C17.346 17.9373 17.3112 17.9719 17.2665 17.9792C16.5885 18.0895 16.0817 18.7711 16.2789 19.5069C16.4761 20.2429 17.2563 20.5796 17.8987 20.3358C17.9409 20.3198 17.9881 20.3322 18.0201 20.3642C18.0205 20.3645 18.0208 20.3649 18.0212 20.3653C18.0531 20.3971 18.0656 20.4444 18.0496 20.4867C17.8058 21.1289 18.1421 21.9091 18.8785 22.1064C19.6169 22.3043 20.295 21.7946 20.4056 21.1188C20.4129 21.0742 20.4474 21.0394 20.4912 21.028C20.4924 21.0276 20.4935 21.0273 20.4947 21.027C20.5383 21.0155 20.5853 21.0283 20.6138 21.0631C21.0475 21.5938 21.8896 21.6948 22.4295 21.1549C22.9679 20.6164 22.8702 19.7729 22.338 19.3388V19.3388Z" fill="#E80054"/>
</g>
<defs>
<clipPath id="clip0_261_1377">
<rect width="28" height="28" fill="white" transform="translate(3 3)"/>
</clipPath>
</defs>
</svg>
