<svg width="34" height="34" viewBox="0 0 34 34" fill="none" xmlns="http://www.w3.org/2000/svg">
<rect width="34" height="34" fill="white"/>
<path d="M30.6163 21.1403C30.4582 20.3323 30.2524 19.511 30.0044 18.6993C28.4752 13.7046 25.3192 9.08032 21.4752 10.1732C20.5652 10.4321 19.8827 11.3704 19.4651 12.6322C18.7321 11.7166 18.3276 10.5706 18.3276 9.38386V5.55979C18.3276 5.1603 18.0838 4.79522 17.7085 4.65823C17.2553 4.49349 16.7532 4.49108 16.2952 4.65642C15.918 4.7928 15.6724 5.15849 15.6724 5.55918C15.6724 9.68172 15.6941 9.66356 15.6066 10.2082C15.4657 11.0879 15.1006 11.9256 14.5349 12.6322C14.1173 11.3704 13.4348 10.4321 12.5248 10.1732C8.68083 9.08032 5.52478 13.7046 3.99563 18.6993C3.74761 19.511 3.54184 20.3323 3.38373 21.1403C2.59442 25.1635 2.96977 28.8602 5.00581 29.3997C6.23926 29.7262 7.64229 28.7498 9.83161 28.7305C10.6312 28.7239 12.8965 29.0932 14.1915 28.392C14.4371 28.2592 14.6598 28.0238 14.8596 27.7034C15.6857 26.38 16.1141 23.6072 16.0972 20.6461C16.09 19.3987 16.0037 18.1182 15.8353 16.8974C15.7999 16.6423 15.7354 16.3946 15.6515 16.1653C15.6565 16.1789 15.6621 16.1922 15.667 16.2059C16.493 15.8585 17.4599 15.8387 18.333 16.2059C18.2546 16.4273 18.1978 16.6585 18.1647 16.8974C17.9963 18.1182 17.91 19.3987 17.9028 20.6461C17.8859 23.6072 18.3143 26.38 19.1404 27.7034C19.3402 28.0238 19.5629 28.2592 19.8085 28.392C21.1035 29.0932 23.3688 28.7239 24.1684 28.7305C26.3577 28.7498 27.7607 29.7262 28.9942 29.3997C31.0302 28.8602 31.4056 25.1635 30.6163 21.1403Z" fill="#CBE3FA"/>
<path d="M15.4171 14.028C15.4153 14.0286 15.4141 14.0292 15.4123 14.0298C15.1516 14.1312 14.8632 13.964 14.8089 13.6901C14.8089 13.6579 14.6826 13.0721 14.5349 12.6322C15.2869 11.6894 15.6724 10.5438 15.6724 9.38384C15.6724 5.39666 15.6453 5.43377 15.743 5.19589C15.8874 4.83858 16.1834 4.66413 16.5553 4.58157C16.8616 4.51357 17.1068 4.70649 17.1382 4.96416C17.7296 9.75737 17.1539 13.3503 15.4171 14.028V14.028Z" fill="#EEF7FF"/>
<path d="M18.5843 11C18.636 11.1579 18.4771 11.3198 18.2992 11.2262C17.484 10.8014 16.513 10.8014 15.7014 11.2256C15.5241 11.3182 15.3639 11.1585 15.4149 11.0028C15.4862 10.7846 15.5447 10.556 15.5881 10.3167C15.6003 10.2496 15.6454 10.1924 15.7095 10.1691C16.5417 9.86631 17.4571 9.86643 18.2908 10.1703C18.3547 10.1936 18.3997 10.2507 18.4119 10.3176C18.454 10.5494 18.5113 10.7769 18.5843 11Z" fill="#9EC7F0"/>
<path d="M18.3276 7.55128V8.25303C18.3276 8.41144 18.1422 8.50588 18.0201 8.40486C17.3982 7.89006 16.5515 7.92566 15.9826 8.40257C15.8572 8.50787 15.6724 8.41041 15.6724 8.25291V7.55134C15.6724 7.48007 15.7121 7.4152 15.7746 7.38086C16.5372 6.96147 17.4633 6.96147 18.2255 7.38086C18.2879 7.4152 18.3276 7.48001 18.3276 7.55128V7.55128Z" fill="#9EC7F0"/>
<path d="M30.6163 21.1403C30.4582 20.3323 30.2524 19.511 30.0044 18.6993C28.4752 13.7046 25.3192 9.08031 21.4752 10.1732C20.5652 10.432 19.8827 11.3704 19.4651 12.6322C19.2261 13.3534 19.0741 14.1801 19.0155 15.046C19.0341 15.0646 18.3316 15.6955 18.1647 16.8974C17.9963 18.1182 17.91 19.3987 17.9028 20.6461C17.8859 23.6072 18.3143 26.38 19.1404 27.7034C19.3402 28.0238 19.5629 28.2592 19.8085 28.392C21.1035 29.0932 23.3688 28.7238 24.1684 28.7305C26.3577 28.7498 27.7607 29.7262 28.9942 29.3997C31.0302 28.8602 31.4056 25.1635 30.6163 21.1403Z" fill="#E84857"/>
<path d="M22.1929 28.1922C22.2902 28.5089 22.043 28.8271 21.712 28.8137C21.0262 28.7857 20.3366 28.6778 19.8085 28.3919C19.5629 28.2592 19.3402 28.0238 19.1405 27.7034C19.9293 27.6183 20.7098 27.4915 21.4741 27.3205C21.7292 27.2634 21.9847 27.4177 22.0484 27.6713C22.0937 27.8522 22.1419 28.0261 22.1929 28.1922V28.1922Z" fill="#EA5A68"/>
<path d="M30.0044 18.6993C30.2524 19.511 30.4582 20.3322 30.6163 21.1403C28.2556 25.219 23.8395 27.1947 19.1404 27.7034C18.3143 26.38 17.8859 23.6072 17.9028 20.646C25.2614 22.4457 29.8434 18.6993 30.0044 18.6993Z" fill="#FF6D7A"/>
<path d="M21.4864 27.3177C20.7182 27.4902 19.9335 27.6178 19.1404 27.7034C18.3143 26.38 17.8859 23.6072 17.9028 20.6461C18.9704 20.9075 20.0525 21.0667 21.0923 21.1173C21.3572 21.1302 21.5608 21.356 21.5484 21.6209C21.473 23.2318 21.5676 25.1622 21.8547 26.7634C21.9001 27.0167 21.7375 27.2614 21.4864 27.3177V27.3177Z" fill="#FF8C95"/>
<path d="M19.0161 15.0466C19.0099 15.0404 19.0796 13.7955 19.4651 12.6322C19.8827 11.3704 20.5652 10.432 21.4752 10.1732C25.3192 9.08031 28.4752 13.7046 30.0044 18.6993C29.8292 18.6993 25.281 22.4505 17.9028 20.6461C17.91 19.3987 17.9963 18.1182 18.1647 16.8974C18.2587 16.2203 18.548 15.5747 19.0161 15.0466V15.0466Z" fill="#FF8C95"/>
<path d="M25.3755 11.9555C22.7391 12.8023 21.8831 17.4907 21.6128 20.6763C21.5908 20.9361 21.3673 21.1304 21.1069 21.118C20.1 21.0701 19.0164 20.9187 17.9028 20.6461C17.91 19.3987 17.9963 18.1182 18.1647 16.8974C18.2585 16.2217 18.547 15.5757 19.0161 15.0466C19.0099 15.0404 19.0796 13.7955 19.4651 12.6322C19.8827 11.3704 20.5652 10.432 21.4752 10.1732C22.9764 9.74562 24.342 10.1987 25.5215 11.1216C25.8215 11.3564 25.7383 11.839 25.3755 11.9555V11.9555Z" fill="#FFAEB5"/>
<path d="M19.394 13.5031C19.2713 13.5744 19.1884 13.6976 19.1631 13.8373C19.0928 14.2262 19.0435 14.6316 19.0155 15.046C19.0287 15.0592 19.4287 14.4965 20.2731 14.1427C20.5051 14.0452 20.6164 13.7917 20.5477 13.5609C20.4668 13.289 20.1742 13.1379 19.9123 13.2465C19.7329 13.3209 19.5598 13.4067 19.394 13.5031Z" fill="#FF8C95"/>
<path d="M16.0972 20.6461C16.0901 19.3987 16.0037 18.1182 15.8353 16.8974C15.7321 16.1545 15.3868 15.4855 14.9839 15.0466C14.99 15.0405 14.9154 13.7805 14.5349 12.6322C14.1173 11.3704 13.4348 10.432 12.5248 10.1732C8.68083 9.08031 5.52478 13.7046 3.99563 18.6993C3.74761 19.511 3.54184 20.3323 3.38373 21.1403C2.59442 25.1635 2.96977 28.8602 5.00581 29.3997C6.23926 29.7262 7.64229 28.7498 9.83161 28.7305C10.6312 28.7238 12.8965 29.0932 14.1915 28.392C14.4371 28.2592 14.6598 28.0238 14.8596 27.7034C15.6857 26.38 16.1143 23.6072 16.0972 20.6461Z" fill="#E84857"/>
<path d="M6.8298 28.7687C6.88701 29.0278 6.72468 29.285 6.46586 29.3435C5.93567 29.4635 5.45918 29.5196 5.00581 29.3997C2.96977 28.8602 2.59442 25.1635 3.38373 21.1403C4.20201 22.5537 5.26686 23.7146 6.50533 24.6495C6.63796 24.7496 6.70935 24.9116 6.69402 25.0771C6.56549 26.4636 6.6026 27.7393 6.8298 28.7687V28.7687Z" fill="#EA5A68"/>
<path d="M16.0972 20.646C16.1141 23.6072 15.6857 26.38 14.8596 27.7034C10.1605 27.1947 5.74443 25.219 3.38373 21.1403C3.62149 19.9253 3.98755 18.6993 3.99624 18.6993C7.47332 20.9816 11.6583 21.7317 16.0972 20.646V20.646Z" fill="#FF6D7A"/>
<path d="M7.50066 20.8865C7.23622 21.7904 6.98863 22.9025 6.82745 23.9813C6.77163 24.3549 6.32966 24.5218 6.03934 24.2801C4.99881 23.414 4.09744 22.3732 3.38373 21.1403C3.54184 20.3323 3.74761 19.511 3.99563 18.6994C4.02623 18.6994 5.31906 19.6362 7.1973 20.2969C7.43923 20.3819 7.57265 20.6404 7.50066 20.8865Z" fill="#FF8C95"/>
<path d="M16.0972 20.6461C8.73858 22.4457 4.15663 18.6993 3.99563 18.6993C5.52478 13.7046 8.68083 9.08031 12.5248 10.1732C13.4348 10.432 14.1173 11.3704 14.5349 12.6322C14.7871 13.3933 14.9297 14.2331 14.9845 15.046L14.9839 15.0466C15.3867 15.4853 15.7315 16.15 15.8353 16.8974C16.0037 18.1182 16.09 19.3987 16.0972 20.6461V20.6461Z" fill="#FF8C95"/>
<path d="M13.684 12.0469C11.0967 12.9323 9.00271 16.3031 7.78482 19.9818C7.69937 20.2399 7.42082 20.3762 7.16466 20.2851C5.25842 19.6068 4.0383 18.6994 3.99563 18.6994C5.52478 13.7046 8.68083 9.08038 12.5248 10.1732C13.1026 10.3332 13.5882 10.7983 13.9319 11.3236C14.1052 11.5885 13.9836 11.9444 13.684 12.0469V12.0469Z" fill="#FFAEB5"/>
<path d="M14.606 13.5031C14.7287 13.5744 14.8116 13.6976 14.8369 13.8373C14.9072 14.2262 14.9565 14.6316 14.9845 15.046C14.9713 15.0592 14.5713 14.4965 13.7269 14.1427C13.4949 14.0452 13.3836 13.7917 13.4523 13.5609C13.5332 13.289 13.8258 13.1379 14.0877 13.2465C14.2671 13.3209 14.4401 13.4067 14.606 13.5031V13.5031Z" fill="#FF6D7A"/>
</svg>
