<svg width="34" height="34" viewBox="0 0 34 34" fill="none" xmlns="http://www.w3.org/2000/svg">
<rect width="34" height="34" fill="white"/>
<g clip-path="url(#clip0_261_1372)">
<path d="M21.7265 5.78535C20.1183 5.30203 18.3795 5.38132 16.8919 6.02073C16.2924 6.27836 15.6157 6.29176 15.0132 6.04129C13.7956 5.53505 11.5375 4.26564 10.2388 3.15696C9.96587 2.92399 9.55697 2.95331 9.32253 3.22494C8.93971 3.66846 8.38961 4.30567 8.01287 4.74181C7.77219 5.02044 7.81053 5.44312 8.09775 5.67346C8.96241 6.3669 10.6454 7.63877 10.812 7.77051C12.8042 9.34529 13.8673 11.8376 13.7562 14.3607C13.6657 16.4163 12.5926 19.7408 10.5244 20.6308C9.27785 21.1673 8.01386 20.6453 6.74817 20.4563C5.83707 20.3203 4.90979 20.8859 4.46956 21.6663C3.26359 23.804 4.70198 28.1263 6.0515 30.6566C6.16443 30.8683 6.38504 30.9999 6.62496 30.9999H8.99938C9.47106 30.9999 9.78475 30.5143 9.59279 30.0834C9.09732 28.9713 8.60169 27.2434 8.41439 25.7308C8.35882 25.2818 8.74962 24.933 9.13653 25.1674C12.0899 26.9561 15.697 27.6553 19.1019 27.0659C24.4158 26.1459 27.6211 21.3287 27.9998 16.2407C28.3228 11.9011 26.1326 7.10967 21.7265 5.78535V5.78535Z" fill="#FE646F"/>
<path d="M28 16.2406C27.6209 21.3286 24.4161 26.1462 19.1016 27.0661C15.6969 27.6553 12.0899 26.9562 9.13638 25.1676C8.74935 24.9333 8.35899 25.282 8.41423 25.731C8.60181 27.2435 9.09755 28.9712 9.59269 30.0832C9.78475 30.5142 9.47101 30.9997 8.99949 30.9997H8.2931C8.341 30.8544 8.33816 30.6899 8.26832 30.5328C7.8965 29.699 5.90686 23.0924 8.4734 23.4771C9.23837 23.592 9.89467 24.1137 10.5729 24.4449C11.7542 25.0217 13.1265 25.478 14.4198 25.74C17.0748 26.278 20.3167 26.1653 22.4692 24.3126C25.0166 22.1195 26.3173 18.5886 26.5612 15.3055C26.8091 11.9808 25.5811 8.39067 23.0123 6.29794C26.5555 8.08759 28.2895 12.3463 28 16.2406V16.2406Z" fill="#FD4755"/>
<path d="M24.7688 16.9709C24.4917 15.4221 23.0276 14.1221 21.3843 14.7082C20.7388 14.9384 20.2244 15.4169 19.9898 16.0663C19.7248 16.7998 19.8467 17.4103 19.2477 18.016C18.8071 18.4615 18.2128 18.7097 17.6299 18.9085C16.451 19.3106 15.0231 19.4452 14.0922 20.3555C13.2564 21.1728 12.8492 22.3983 13.4066 23.4879C13.6732 24.0092 14.1518 24.4029 14.6866 24.6411C17.1784 25.7511 20.6418 24.4444 22.5609 22.7377C24.168 21.3086 25.1475 19.0882 24.7688 16.9709V16.9709Z" fill="#FFF2E2"/>
<path d="M22.561 22.738C20.6418 24.4443 17.1785 25.7512 14.6863 24.6415C14.1517 24.4033 13.6729 24.0094 13.4065 23.4878C13.3062 23.2912 13.2369 23.0901 13.1963 22.8885C13.4431 23.1386 13.745 23.338 14.0667 23.4817C16.5589 24.5914 20.0222 23.2851 21.9414 21.5782C23.5486 20.1491 24.5276 17.9284 24.1491 15.8115C24.13 15.705 24.1052 15.5991 24.0753 15.4954C24.4252 15.9083 24.6708 16.4238 24.7688 16.9708C25.1473 19.0882 24.1682 21.3083 22.561 22.738Z" fill="#FEE8C7"/>
<path d="M24.9452 31C27.7273 31 29.9827 28.7446 29.9827 25.9625C29.9827 23.1804 27.7273 20.925 24.9452 20.925C22.1631 20.925 19.9077 23.1804 19.9077 25.9625C19.9077 28.7446 22.1631 31 24.9452 31Z" fill="#A2E62E"/>
<path d="M29.9829 25.9625C29.9829 28.7448 27.7273 30.9998 24.9451 30.9998C23.2996 30.9998 21.8383 30.2111 20.919 28.9904C21.7803 29.6788 22.872 30.09 24.0607 30.09C26.843 30.09 29.0979 27.8345 29.0979 25.0527C29.0979 23.9165 28.7216 22.8681 28.0873 22.0254C29.2426 22.9476 29.9829 24.3689 29.9829 25.9625V25.9625Z" fill="#97D729"/>
<path d="M27.5285 24.8333H26.3764C26.2097 24.8333 26.0746 24.6982 26.0746 24.5314V23.3793C26.0746 23.2126 25.9394 23.0775 25.7727 23.0775H24.1179C23.9512 23.0775 23.8161 23.2126 23.8161 23.3793V24.5314C23.8161 24.6982 23.6809 24.8333 23.5142 24.8333H22.3621C22.1954 24.8333 22.0602 24.9684 22.0602 25.1352V26.7899C22.0602 26.9567 22.1954 27.0918 22.3621 27.0918H23.5142C23.6809 27.0918 23.8161 27.2269 23.8161 27.3937V28.5458C23.8161 28.7125 23.9512 28.8476 24.1179 28.8476H25.7727C25.9394 28.8476 26.0746 28.7125 26.0746 28.5458V27.3937C26.0746 27.2269 26.2097 27.0918 26.3764 27.0918H27.5285C27.6953 27.0918 27.8304 26.9567 27.8304 26.7899V25.1352C27.8304 24.9684 27.6953 24.8333 27.5285 24.8333Z" fill="#FD4755"/>
<path d="M27.8304 25.1354V26.7901C27.8304 26.9568 27.6955 27.0918 27.5287 27.0918H26.3763C26.2095 27.0918 26.0746 27.2267 26.0746 27.3935V28.5459C26.0746 28.7127 25.939 28.8476 25.7728 28.8476H24.9764C25.1426 28.8476 25.2781 28.7127 25.2781 28.5459V26.9619C25.2781 26.6271 25.5492 26.356 25.8834 26.356H26.7323C26.8991 26.356 27.034 26.2211 27.034 26.0543V25.8825C27.034 25.7158 26.8991 25.5808 26.7323 25.5808H25.8835C25.5493 25.5808 25.2782 25.3097 25.2782 24.9749V23.379C25.2782 23.2129 25.1427 23.0774 24.9765 23.0774H25.7729C25.939 23.0774 26.0746 23.2129 26.0746 23.379V24.5315C26.0746 24.6983 26.2095 24.8332 26.3763 24.8332H27.5288C27.6955 24.8331 27.8304 24.9687 27.8304 25.1354V25.1354Z" fill="#FB2B3A"/>
</g>
<defs>
<clipPath id="clip0_261_1372">
<rect width="28" height="28" fill="white" transform="translate(3 3)"/>
</clipPath>
</defs>
</svg>
