<svg width="34" height="34" viewBox="0 0 34 34" fill="none" xmlns="http://www.w3.org/2000/svg">
<g clip-path="url(#clip0_261_1370)">
<rect width="34" height="34" fill="white"/>
<g clip-path="url(#clip1_261_1370)">
<path d="M31.033 11.584C30.8736 11.6783 30.6983 11.7235 30.5256 11.7235C30.185 11.7235 29.8536 11.5495 29.6663 11.2361C29.3834 10.7613 29.5534 10.1384 30.0289 9.85615C31.3205 9.08849 32.039 8.08443 32.0005 7.09896C31.9746 6.43954 31.6007 5.88572 30.9745 5.57825C29.8337 5.01911 27.6091 5.3372 24.8711 6.45017C24.8645 6.45283 24.8572 6.45615 24.8505 6.4588C23.9753 6.81275 23.4633 7.73911 23.6672 8.66083C23.7728 9.13829 23.8286 9.63368 23.8286 10.1424C23.8286 11.5156 23.4228 12.7946 22.7255 13.8651C22.3065 14.5072 22.0874 15.259 22.1213 16.0246C22.1246 16.0997 22.1266 16.1747 22.1266 16.2504C22.1266 17.3342 21.7899 18.3395 21.2161 19.167C20.7227 19.8788 20.317 20.6418 19.9982 21.4401C19.9969 21.4427 19.9956 21.4454 19.9949 21.448C19.9936 21.4507 19.9923 21.454 19.9903 21.458C19.886 21.699 18.7292 24.267 17 24.267C15.2708 24.267 14.114 21.699 14.0097 21.458C14.0077 21.454 14.0064 21.4507 14.0051 21.448C14.0044 21.4454 14.0031 21.4427 14.0018 21.4401C13.683 20.6418 13.2773 19.8788 12.7839 19.167C12.2101 18.3395 11.8734 17.3342 11.8734 16.2504C11.8734 16.1953 11.8748 16.1402 11.8761 16.0857C11.902 15.2855 11.6835 14.5013 11.2505 13.8279C10.546 12.7309 10.1469 11.4187 10.1728 10.0115C10.1814 9.55333 10.2345 9.10708 10.3275 8.67677C10.5287 7.74775 10.0293 6.81474 9.14812 6.45814C9.14148 6.45548 9.13551 6.45283 9.12887 6.45017C6.39094 5.3372 4.16633 5.01911 3.02547 5.57825C2.39926 5.88572 2.02539 6.43954 1.99949 7.09896C1.96097 8.08443 2.67949 9.08849 3.97109 9.85615C4.44656 10.1384 4.61656 10.7613 4.33367 11.2361C4.1464 11.5495 3.81504 11.7235 3.47437 11.7235C3.30172 11.7235 3.1264 11.6783 2.96703 11.584C0.194568 9.94513 -0.0298848 7.84669 0.00265427 7.0206C0.0571074 5.6254 0.858631 4.41482 2.14558 3.78396C4.29383 2.73075 7.53777 3.64583 9.88125 4.59876C9.90449 4.60806 9.92773 4.61802 9.95098 4.62665C11.0945 5.0822 12.3788 4.95404 13.4287 4.31255C14.4407 3.69431 15.6294 3.3324 16.905 3.31513C18.2551 3.29654 19.5168 3.6704 20.5833 4.32915C21.6225 4.9713 22.9029 5.0822 24.0384 4.6313C24.065 4.62068 24.0915 4.61005 24.1188 4.59876C26.4622 3.64583 29.7062 2.73075 31.8544 3.78396C33.1414 4.41482 33.9429 5.6254 33.9973 7.0206C34.0299 7.84669 33.8054 9.94513 31.033 11.584V11.584Z" fill="#FFD8D7"/>
<path d="M28.5972 5.37638C27.5407 5.51849 26.273 5.87974 24.8711 6.45017C24.8645 6.45349 24.8578 6.45615 24.8499 6.4588C23.9753 6.81275 23.4626 7.73911 23.6672 8.66083C23.7728 9.13829 23.8279 9.63368 23.8279 10.1424C23.8279 11.5156 23.4228 12.794 22.7255 13.8651C22.3065 14.5072 22.0874 15.259 22.1212 16.0246C22.1246 16.099 22.1259 16.1754 22.1259 16.2504C22.1259 17.3342 21.7899 18.3395 21.2161 19.1676C20.7227 19.8788 20.317 20.6425 19.9982 21.4401C19.9982 21.4401 19.9969 21.4427 19.9949 21.448C19.9305 21.5974 18.9809 23.759 17.5113 24.1919C17.7816 22.3923 18.4337 20.6658 19.4716 19.1676C20.0454 18.3395 20.3814 17.3342 20.3814 16.2504C20.3814 16.1754 20.3801 16.099 20.3768 16.0246C20.3435 15.259 20.562 14.5072 20.981 13.8651C21.6783 12.794 22.0834 11.5156 22.0834 10.1424C22.0834 9.63368 22.0283 9.13829 21.9227 8.66083C21.7182 7.73911 22.2308 6.81275 23.1054 6.4588C23.1134 6.45615 23.12 6.45349 23.1266 6.45017C25.4243 5.51583 27.3594 5.14263 28.5972 5.37638V5.37638Z" fill="#FDC1B8"/>
<path d="M19.9982 21.438V21.44C19.5639 22.5264 19.289 23.6759 19.1741 24.8487C19.1117 25.4888 19.0566 26.1868 19.0134 26.9445L19.0128 26.9438L18.623 27.6822L18.9616 28.0216C18.9517 28.2752 18.9437 28.5355 18.9364 28.8012C18.9078 29.8736 18.0107 30.723 16.9303 30.6845C15.9023 30.6486 15.0908 29.7913 15.0629 28.7633C15.0344 27.7287 14.9846 26.7857 14.9195 25.9298L15.3505 25.5938L14.8278 24.8666C14.8278 24.8659 14.8272 24.8659 14.8272 24.8659C14.8272 24.86 14.8265 24.8546 14.8259 24.8487C14.711 23.6759 14.4361 22.5264 14.0018 21.44V21.438C15.1778 24.0027 18.8222 24.0027 19.9982 21.438V21.438Z" fill="#FC7C6A"/>
<path d="M19.9982 21.4379V21.4399C19.5639 22.5263 19.289 23.6758 19.1741 24.8486C19.1117 25.4887 19.0566 26.186 19.0134 26.9437H19.0128L18.623 27.6821L18.9616 28.0214C18.9517 28.2751 18.9437 28.5354 18.9364 28.8011C18.9078 29.8735 18.0107 30.7229 16.9303 30.6843C16.6427 30.6744 16.3731 30.6 16.1321 30.4758C16.7457 30.165 17.1727 29.5355 17.1912 28.8017C17.2318 27.295 17.3187 25.9821 17.4296 24.8486C17.4808 24.3239 17.5651 23.804 17.68 23.292C18.1594 23.1937 18.6196 22.9898 19.0201 22.6811C19.4198 22.3723 19.7598 21.9579 19.9982 21.4379V21.4379Z" fill="#FC6D5A"/>
<path d="M21.7759 10.1424C21.7759 11.0714 21.5097 11.9712 21.0056 12.7448C20.8389 12.9998 20.6178 13.2681 20.3761 13.5437H13.6239C13.3749 13.2581 13.1464 12.9812 12.9778 12.7189C12.4671 11.9247 12.2068 11.0017 12.2247 10.0501C12.2307 9.73264 12.2672 9.41654 12.3336 9.11041C12.4572 8.53865 12.4525 7.96623 12.3363 7.42502C12.2745 7.13947 12.4578 6.85592 12.7427 6.78818C13.3576 6.64209 13.9506 6.39838 14.4985 6.06369C15.2256 5.6201 16.067 5.37904 16.9329 5.36709C16.9555 5.36709 16.9774 5.36642 17 5.36642C17.8879 5.36642 18.7545 5.61146 19.5042 6.07498C20.0454 6.40967 20.6338 6.65271 21.2467 6.79748C21.5309 6.86521 21.7142 7.14744 21.6538 7.43299C21.5402 7.97021 21.5375 8.53799 21.663 9.10443C21.7381 9.44244 21.7759 9.79174 21.7759 10.1424V10.1424Z" fill="#FC9085"/>
<path d="M21.7759 10.1424C21.7759 11.0714 21.5096 11.9712 21.0056 12.7448C20.8389 12.9998 20.6178 13.2681 20.3761 13.5437H17.9516C18.4145 13.0098 18.9171 12.4898 19.2279 12.013C19.7326 11.2394 19.9982 10.3396 19.9982 9.41056C19.9982 9.05993 19.9611 8.71063 19.8854 8.37263C19.7605 7.80618 19.7632 7.23841 19.8767 6.70118C19.9166 6.51259 19.8502 6.32532 19.7187 6.20114C20.1995 6.47075 20.7141 6.6713 21.2467 6.79747C21.5309 6.8652 21.7142 7.14743 21.6537 7.43298C21.5402 7.97087 21.5375 8.53864 21.663 9.10442C21.7381 9.44309 21.7759 9.79173 21.7759 10.1424V10.1424Z" fill="#FC7C6A"/>
<path d="M20.3761 13.5442L19.1369 14.1266L15.9202 17.6574C15.7376 17.2358 15.5344 16.6713 15.298 15.8751C15.0669 15.0988 14.2753 14.2913 13.6239 13.5436C14.3537 12.4585 15.5935 11.744 17 11.744C18.4065 11.744 19.6463 12.4585 20.3761 13.5442V13.5442Z" fill="#F82F40"/>
<path d="M19.0326 12.2881C18.3562 13.1751 17.1986 14.1844 16.92 15.1428C16.5253 16.5022 16.2085 17.1992 15.9205 17.6576C15.9209 17.6585 15.921 17.6597 15.9214 17.6605C16.1638 18.2192 16.3715 18.5261 16.5785 18.7863C16.7914 19.0539 17.1992 19.0552 17.4126 18.788C17.7801 18.3276 18.1694 17.6939 18.6976 15.8749C18.9224 15.1007 19.721 14.2933 20.3762 13.544C20.0305 13.0299 19.5704 12.5993 19.0326 12.2881V12.2881Z" fill="#E22334"/>
<path d="M30.7169 14.4256C32.1077 13.0349 32.2794 10.9517 31.1004 9.77274C29.9214 8.59376 27.8382 8.76543 26.4475 10.1562C25.0567 11.5469 24.8851 13.6301 26.064 14.8091C27.243 15.9881 29.3262 15.8164 30.7169 14.4256Z" fill="#FC9085"/>
<path d="M30.7218 14.4245C29.331 15.8153 27.2472 15.987 26.0678 14.8076C25.8387 14.5784 25.6601 14.3143 25.5322 14.0284C26.7164 14.56 28.2871 14.2308 29.4077 13.1103C30.5275 11.9904 30.8572 10.4204 30.3271 9.23557C30.6131 9.36346 30.8758 9.54137 31.1049 9.77053C32.2843 10.9499 32.1125 13.033 30.7218 14.4245V14.4245Z" fill="#FC7C6A"/>
<path d="M7.92972 14.8067C9.1087 13.6277 8.93703 11.5445 7.54629 10.1538C6.15554 8.76301 4.07237 8.59134 2.89339 9.77033C1.7144 10.9493 1.88607 13.0325 3.27682 14.4232C4.66757 15.814 6.75074 15.9856 7.92972 14.8067Z" fill="#FC9085"/>
<path d="M7.93223 14.8076C7.73726 15.0026 7.51699 15.1613 7.27959 15.2824C7.89325 14.0852 7.58127 12.442 6.42102 11.2817C5.26077 10.1208 3.61755 9.80886 2.42038 10.4232C2.54144 10.1858 2.70015 9.96551 2.89518 9.77054C4.0739 8.59183 6.15766 8.76283 7.54847 10.1543C8.93922 11.5451 9.11094 13.6289 7.93223 14.8076V14.8076Z" fill="#FC7C6A"/>
<path d="M17.1204 25.9277C17.0643 26.1631 16.8536 26.3218 16.6217 26.3218C16.582 26.3218 16.5423 26.317 16.5027 26.3074L14.919 25.9305C14.8916 25.559 14.8601 25.2047 14.8273 24.866C14.8929 24.8749 14.9709 24.8893 15.0612 24.9091L16.74 25.3094C17.0157 25.375 17.1861 25.652 17.1204 25.9277Z" fill="#E22334"/>
<path d="M19.0126 26.9436C18.9935 27.2904 18.9764 27.6496 18.9613 28.0218L17.3413 28.4076C17.3016 28.4172 17.262 28.4213 17.2223 28.4213C16.9904 28.4213 16.7797 28.2632 16.7236 28.0272C16.6579 27.7515 16.8282 27.4751 17.1039 27.4094L18.7827 27.0093C18.8724 26.9792 18.9484 26.9573 19.0126 26.9436Z" fill="#E22334"/>
<path d="M23.869 27.8947C26.9036 27.8947 29.3637 25.4346 29.3637 22.4C29.3637 19.3653 26.9036 16.9052 23.869 16.9052C20.8344 16.9052 18.3743 19.3653 18.3743 22.4C18.3743 25.4346 20.8344 27.8947 23.869 27.8947Z" fill="#24D1F8"/>
<path d="M29.3635 22.3996C29.3635 25.4343 26.9035 27.8943 23.8688 27.8943C23.5945 27.8943 23.3256 27.8745 23.0622 27.8348C25.7145 27.4456 27.7504 25.16 27.7504 22.3996C27.7504 19.6393 25.7145 17.3537 23.0622 16.9644C23.3256 16.9247 23.5945 16.9049 23.8688 16.9049C26.9035 16.9049 29.3635 19.3649 29.3635 22.3996V22.3996Z" fill="#21C1F8"/>
<path d="M26.7172 21.231C26.3313 20.6931 25.7136 20.4399 25.1122 20.4924C24.8046 20.5193 24.5062 20.3872 24.3302 20.1335C24.2131 19.9648 24.0498 19.8229 23.8452 19.7282C23.3565 19.5022 22.7637 19.6387 22.4236 20.0562C22.2691 20.2457 22.1829 20.4635 22.1586 20.6835C22.144 20.8148 22.0584 20.9261 21.9327 20.9668C21.7012 21.0417 21.4807 21.1651 21.2867 21.3389C20.5737 21.9778 20.4926 23.0905 21.1045 23.8268C21.4921 24.2933 22.0652 24.5135 22.6265 24.4706C22.8918 24.4503 23.1433 24.5726 23.3188 24.7726C23.4226 24.8907 23.5521 24.9909 23.7054 25.0644C24.214 25.308 24.8381 25.1532 25.1753 24.7013C25.2809 24.5598 25.3502 24.4042 25.3859 24.2448C25.4127 24.1245 25.5117 24.0332 25.6324 24.0081C25.926 23.9472 26.2086 23.8112 26.4503 23.5969C27.1256 22.998 27.2434 21.9641 26.7172 21.231V21.231Z" fill="#FC9AA1"/>
<path d="M26.4506 23.5968C26.2084 23.8109 25.9259 23.9471 25.6324 24.0079C25.512 24.0332 25.4128 24.1242 25.3861 24.2446C25.3505 24.404 25.2808 24.56 25.1754 24.7009C24.8381 25.153 24.2143 25.3077 23.7052 25.0641C23.552 24.9909 23.4227 24.8903 23.3187 24.7727C23.2202 24.6598 23.0978 24.5715 22.9616 24.5203C23.3262 24.5456 23.6936 24.3875 23.9207 24.0838C24.0178 23.9538 24.0814 23.8108 24.1142 23.6644C24.1389 23.5542 24.2299 23.4701 24.3407 23.4475C24.6102 23.3914 24.8702 23.2662 25.0918 23.0692C25.7123 22.5192 25.8204 21.5696 25.3374 20.8965C25.2184 20.7302 25.0747 20.5934 24.916 20.4874C24.9802 20.4963 25.0459 20.4984 25.1123 20.4922C25.7136 20.4395 26.3314 20.6933 26.7172 21.231C27.2435 21.9639 27.1258 22.9982 26.4506 23.5968V23.5968Z" fill="#FB8189"/>
<path d="M22.636 23.0444C22.5936 23.0444 22.5505 23.0391 22.5075 23.028C22.2331 22.9572 22.0681 22.6774 22.1389 22.403L22.1408 22.3957C22.2115 22.1214 22.4911 21.9563 22.7657 22.0271C23.0401 22.0979 23.2051 22.3777 23.1343 22.6521L23.1324 22.6594C23.0729 22.8908 22.8645 23.0444 22.636 23.0444Z" fill="#FFC4C8"/>
<path d="M24.1292 23.8892C24.0867 23.8892 24.0437 23.8839 24.0006 23.8728C23.7262 23.802 23.5612 23.5222 23.6321 23.2478L23.6339 23.2405C23.7046 22.9661 23.9842 22.8011 24.2589 22.8719C24.5333 22.9427 24.6983 23.2225 24.6274 23.4969L24.6256 23.5042C24.566 23.7355 24.3576 23.8892 24.1292 23.8892Z" fill="#FFC4C8"/>
<path d="M24.6384 20.9151C24.5693 20.9151 24.4991 20.901 24.4319 20.8714C24.1725 20.7572 24.0549 20.4544 24.169 20.1951L24.6365 19.1334C24.7507 18.8741 25.0537 18.7565 25.3129 18.8707C25.5722 18.9849 25.6899 19.2877 25.5757 19.547L25.1082 20.6087C25.0237 20.8006 24.8356 20.9151 24.6384 20.9151Z" fill="#FB4A59"/>
<path d="M22.4839 26.2544C22.4148 26.2544 22.3444 26.2403 22.2771 26.2106C22.0179 26.0963 21.9003 25.7934 22.0147 25.5341L22.4897 24.4571C22.604 24.1979 22.9068 24.0804 23.1662 24.1947C23.4254 24.309 23.5429 24.6119 23.4286 24.8711L22.9536 25.9482C22.8689 26.1402 22.6809 26.2544 22.4839 26.2544V26.2544Z" fill="#FB4A59"/>
</g>
</g>
<defs>
<clipPath id="clip0_261_1370">
<rect width="34" height="34" fill="white"/>
</clipPath>
<clipPath id="clip1_261_1370">
<rect width="34" height="34" fill="white"/>
</clipPath>
</defs>
</svg>
