<svg width="34" height="34" viewBox="0 0 34 34" fill="none" xmlns="http://www.w3.org/2000/svg">
<rect width="34" height="34" fill="white"/>
<g clip-path="url(#clip0_261_1371)">
<path d="M26.1444 8.19266V23.3989H19.1056L17.3561 24.4225C16.3778 26.0916 14.2319 26.6514 12.5629 25.673C11.6846 25.1585 11.1137 24.3204 10.912 23.3989H8.93411V8.19266H26.1444Z" fill="#E94444"/>
<path d="M14.3278 26.5304C13.6616 26.5304 12.9872 26.359 12.3721 25.9985C11.441 25.4529 10.7745 24.5348 10.5435 23.4795C10.4989 23.276 10.6278 23.0749 10.8314 23.0303C11.0348 22.9858 11.236 23.1147 11.2805 23.3182C11.4666 24.1683 12.0035 24.908 12.7536 25.3475C14.2406 26.2192 16.1592 25.7185 17.0307 24.2317C17.1361 24.0519 17.3673 23.9917 17.5469 24.097C17.7267 24.2024 17.787 24.4335 17.6816 24.6133C16.9602 25.8439 15.6607 26.5304 14.3278 26.5304V26.5304Z" fill="#D83131"/>
<path d="M24.3739 10.0327C22.4796 7.88661 19.1926 7.68168 17.0465 9.576C16.0069 10.4937 15.3868 11.7612 15.3006 13.1452C15.2256 14.3488 15.5623 15.5151 16.255 16.4826C15.783 16.7116 15.3591 17.0486 15.023 17.4819C14.7576 17.1394 14.4249 16.8404 14.0289 16.6083C12.3627 15.6316 10.2128 16.1926 9.23622 17.8588C9.13084 18.0385 9.19115 18.2697 9.37093 18.375C9.55071 18.4805 9.78179 18.4202 9.88718 18.2403C10.6534 16.9332 12.3402 16.4931 13.6474 17.2593C14.9545 18.0255 15.3946 19.7123 14.6284 21.0195C14.523 21.1992 14.5834 21.4304 14.7631 21.5358C14.8231 21.5709 14.8887 21.5876 14.9536 21.5876C15.0831 21.5876 15.2092 21.5209 15.2794 21.401C15.8747 20.3855 15.8977 19.1906 15.4485 18.1908C16.2281 16.9227 17.8876 16.503 19.1779 17.2593C20.4851 18.0255 20.9252 19.7123 20.159 21.0195C20.0536 21.1992 20.1139 21.4304 20.2937 21.5358C20.3537 21.5709 20.4193 21.5876 20.4842 21.5876C20.6136 21.5876 20.7397 21.5209 20.81 21.401C21.7866 19.735 21.2256 17.5849 19.5595 16.6084C18.7573 16.1382 17.8433 16.0253 17.0018 16.2197C16.3207 15.3605 15.9851 14.2947 16.0538 13.1922C16.1275 12.0093 16.6574 10.926 17.5459 10.1418C19.3801 8.52283 22.1894 8.69798 23.8084 10.5321C23.9462 10.6883 24.1846 10.7031 24.3408 10.5653C24.4969 10.4274 24.5118 10.189 24.3739 10.0327V10.0327Z" fill="#D83131"/>
<path d="M13.9829 13.7248C13.3023 14.6972 12.2133 15.2183 11.1077 15.2183C10.4145 15.2183 9.7153 15.0141 9.10564 14.5875C9.04679 14.5463 8.98944 14.504 8.93411 14.4593V13.3924C9.10061 13.6092 9.30232 13.8043 9.53773 13.9693C10.7792 14.8375 12.496 14.5337 13.3647 13.2923C13.4839 13.1212 13.7193 13.08 13.8898 13.1992C14.0604 13.3189 14.1021 13.5538 13.9829 13.7248V13.7248Z" fill="#D83131"/>
<path d="M26.1444 11.1091V12.9421C25.8783 11.4019 24.506 10.2525 22.9009 10.3053C22.0513 10.3335 21.2631 10.6916 20.6821 11.3129C20.1011 11.9336 19.7968 12.744 19.8255 13.5941C19.8325 13.8023 19.669 13.9769 19.4608 13.9839H19.4482C19.2455 13.9839 19.078 13.8229 19.0714 13.6192C19.0362 12.5679 19.4125 11.5654 20.1308 10.7973C20.8496 10.0287 21.8245 9.58651 22.8758 9.5513C24.2007 9.50703 25.3974 10.1262 26.1444 11.1091Z" fill="#D83131"/>
<path d="M26.1444 16.7777V17.7103C25.6021 18.0392 24.9723 18.2218 24.323 18.2218C23.9764 18.2218 23.6238 18.1695 23.2757 18.0604C22.3828 17.7802 21.6529 17.1685 21.2203 16.3395C20.7872 15.5101 20.7037 14.5619 20.9839 13.669C21.0463 13.4703 21.2581 13.3597 21.4568 13.4225C21.6559 13.4849 21.7661 13.6967 21.7037 13.8954C21.4839 14.5956 21.5498 15.3395 21.8893 15.9904C22.2289 16.6408 22.8013 17.1207 23.5015 17.3405C24.4522 17.6393 25.4462 17.3929 26.1444 16.7777V16.7777Z" fill="#D83131"/>
<path d="M28.2796 11.8745C28.9564 12.1725 29.3791 12.7991 29.3791 13.5862V13.901C29.3791 14.6881 28.9062 15.3649 28.2293 15.663C28.104 15.7179 28.1543 15.95 28.2796 16.0049C28.9564 16.303 29.3791 16.9295 29.3791 17.7166V18.0313C29.3791 18.8185 28.9062 19.4953 28.2293 19.7934C28.104 19.8482 28.1543 20.0804 28.2796 20.1353C28.9564 20.4333 29.3791 21.0599 29.3791 21.847V22.1617C29.3791 23.0678 28.8026 23.7777 27.9595 23.9821C27.8874 23.9993 27.786 24.1136 27.786 24.1879V24.7028C27.786 25.7659 26.9744 26.577 25.9118 26.577H25.5971C25.3886 26.577 25.1879 26.5941 24.9999 26.5329C24.4775 26.3627 24.0533 25.9751 23.8346 25.477C23.7797 25.3517 23.5978 25.3517 23.5424 25.477C23.2449 26.1544 22.5675 26.6273 21.7804 26.6273H21.4657C20.4028 26.6273 19.5412 25.7656 19.5412 24.7028C19.5412 24.6371 19.4751 24.5923 19.4137 24.6157C18.0394 25.1393 17.0604 26.4715 17.0604 28.0277V29.4621C17.0604 29.7592 16.8195 30.0001 16.5223 30.0001H15.7153C15.4182 30.0001 15.1773 29.7592 15.1773 29.4621V28.0277C15.1773 25.4033 17.0133 23.2004 19.4685 22.6358C19.5109 22.626 19.5411 22.5887 19.5411 22.5453V22.3828C19.5411 21.32 20.4027 20.4584 21.4656 20.4584H21.7803C22.3334 20.4584 22.8316 20.6919 23.183 21.0647C23.2604 21.147 23.396 21.1266 23.4444 21.0243C23.6414 20.6084 23.9825 20.2743 24.4037 20.0877C24.5312 20.0306 24.5366 19.8493 24.4091 19.7934C23.7323 19.4953 23.2599 18.8185 23.2599 18.0313V17.7166C23.2599 16.9295 23.7323 16.2527 24.4091 15.9546C24.5345 15.8997 24.5345 15.7179 24.4091 15.663C23.7323 15.3649 23.2599 14.6881 23.2599 13.901V13.5862C23.2599 12.7991 23.7323 12.1223 24.4091 11.8242C24.5366 11.7683 24.5312 11.5869 24.4037 11.5299C23.9846 11.3437 23.6446 11.0123 23.4477 10.5996C23.3987 10.4974 23.2631 10.4775 23.1857 10.5598C22.8349 10.9348 22.3345 11.1694 21.7804 11.1694H21.4657C20.6823 11.1694 20.0082 10.7013 19.708 10.0293C19.6499 9.89965 19.4696 9.89965 19.4115 10.0293C19.1113 10.7013 18.4372 11.1694 17.6538 11.1694H17.3391C16.552 11.1694 15.8752 10.697 15.5771 10.0202C15.5222 9.89482 15.3404 9.89482 15.2855 10.0202C14.9874 10.697 14.3106 11.1694 13.5234 11.1694H13.2087C12.6578 11.1694 12.1607 10.9375 11.8099 10.5668C11.733 10.4856 11.5979 10.5055 11.5495 10.6066C11.46 10.7916 11.3418 10.9602 11.2007 11.1064C11.0295 11.2838 10.7743 11.4284 10.5458 11.5299C10.4183 11.5869 10.4632 11.8185 10.5907 11.8745C11.2675 12.1725 11.6896 12.7991 11.6896 13.5862V13.901C11.6896 14.6881 11.2172 15.3649 10.5404 15.663C10.415 15.7179 10.4653 15.95 10.5907 16.0049C11.2675 16.303 11.6896 16.9295 11.6896 17.7166V18.0313C11.6896 18.8185 11.2172 19.4953 10.5404 19.7934C10.415 19.8482 10.4653 20.0804 10.5907 20.1353C11.2675 20.4333 11.6896 21.0599 11.6896 21.847V22.1617C11.6896 23.2246 10.8783 24.0359 9.8154 24.0359C9.75388 24.0359 9.65373 24.1361 9.65373 24.1976V24.2971C9.65373 25.9822 8.6151 27.3673 7.10433 27.8865C6.74176 28.011 6.37043 27.9519 6.12838 27.7074C5.96243 27.5398 5.8572 27.3087 5.8572 27.0459C5.8572 26.6472 6.10574 26.2862 6.4829 26.1587C7.25982 25.8967 7.82093 25.1612 7.82093 24.2972V24.1976C7.82093 24.1361 7.77108 24.0863 7.70957 24.0863H7.49498C6.4321 24.0863 5.57048 23.2246 5.57048 22.1618V21.847C5.57048 21.0599 6.04342 20.3831 6.72023 20.085C6.84558 20.0301 6.84558 19.8483 6.72023 19.7934C6.04342 19.4953 5.57048 18.8185 5.57048 18.0314V17.7166C5.57048 16.9295 6.04342 16.2527 6.72023 15.9546C6.84558 15.8997 6.84558 15.7179 6.72023 15.663C6.04342 15.365 5.57048 14.6881 5.57048 13.901V13.5863C5.57048 12.7991 6.04342 12.1223 6.72023 11.8242C6.84558 11.7694 6.84558 11.5875 6.72023 11.5326C6.04342 11.2346 5.57048 10.5577 5.57048 9.77062V9.45589C5.57048 8.54985 6.19729 7.78964 7.04035 7.58521C7.11243 7.56801 7.16354 7.50397 7.16354 7.42973V6.9245C7.16359 5.86162 8.02521 5 9.08804 5H9.40277C10.1845 5 10.857 5.46595 11.1583 6.13466C11.2159 6.26323 11.3956 6.26323 11.4531 6.13466C11.7545 5.46595 12.427 5 13.2087 5H13.5234C14.3106 5 14.9874 5.47294 15.2855 6.14975C15.3404 6.2751 15.5222 6.2751 15.5771 6.14975C15.8751 5.47294 16.552 5 17.3391 5H17.6538C18.4372 5 19.1113 5.46806 19.4115 6.14059C19.4696 6.27027 19.6499 6.27027 19.708 6.14059C20.0082 5.46806 20.6823 5 21.4657 5H21.7804C22.5675 5 23.2449 5.47344 23.5424 6.1508C23.5978 6.27616 23.7797 6.27616 23.8346 6.1508C24.0539 5.65226 24.4785 5.26413 25.0014 5.09401C25.1889 5.033 25.3891 5 25.5971 5L25.9118 5.0503C26.9747 5.0503 27.786 5.86162 27.786 6.9245V7.42968C27.786 7.50392 27.8874 7.61826 27.9595 7.63546C28.8026 7.83989 29.3791 8.54985 29.3791 9.45583V9.77057C29.3791 10.5577 28.9062 11.2345 28.2293 11.5326C28.104 11.5875 28.1543 11.8196 28.2796 11.8745V11.8745Z" fill="#F47C7C"/>
<path d="M28.2796 11.8244C28.9567 12.1222 29.4295 12.7993 29.4295 13.586V13.9009C29.4295 14.6881 28.9567 15.3647 28.2796 15.663C28.1544 15.7178 28.1544 15.8999 28.2796 15.9547C28.9567 16.2525 29.4295 16.9296 29.4295 17.7168V18.0312C29.4295 18.8184 28.9567 19.4955 28.2796 19.7933C28.1544 19.8481 28.1544 20.0302 28.2796 20.085C28.9567 20.3828 29.4295 21.0599 29.4295 21.8471V22.1615C29.4295 23.0679 28.8028 23.828 27.9597 24.0322C27.8873 24.0493 27.8365 24.1137 27.8365 24.1876V24.7027C27.8365 25.7656 26.9743 26.6273 25.9119 26.6273H25.597C25.3888 26.6273 25.1876 26.5941 25 26.5327C25.7706 26.2812 26.3274 25.5568 26.3274 24.7027V24.1876C26.3274 24.1137 26.3782 24.0493 26.4507 24.0322C27.2937 23.828 27.9205 23.0679 27.9205 22.1615V21.8471C27.9205 21.0599 27.4476 20.3828 26.7706 20.085C26.6453 20.0302 26.6453 19.8481 26.7706 19.7933C27.4476 19.4955 27.9205 18.8184 27.9205 18.0312V17.7168C27.9205 16.9296 27.4476 16.2525 26.7706 15.9547C26.6453 15.8999 26.6453 15.7178 26.7706 15.663C27.4476 15.3647 27.9205 14.6881 27.9205 13.9009V13.586C27.9205 12.7993 27.4476 12.1222 26.7706 11.8244C26.6453 11.7691 26.6453 11.5875 26.7706 11.5327C27.4476 11.2344 27.9205 10.5578 27.9205 9.77062V9.45573C27.9205 8.5498 27.2937 7.78974 26.4507 7.58501C26.3782 7.56791 26.3274 7.50402 26.3274 7.42958V6.92455C26.3274 6.06992 25.7706 5.34557 25 5.09457C25.1876 5.0332 25.3888 5 25.597 5H25.9119C26.9748 5 27.8365 5.86167 27.8365 6.92455V7.42958C27.8365 7.50402 27.8873 7.56791 27.9597 7.58501C28.8028 7.78974 29.4295 8.5498 29.4295 9.45573V9.77062C29.4295 10.5578 28.9567 11.2344 28.2796 11.5327C28.1544 11.5875 28.1544 11.7691 28.2796 11.8244V11.8244Z" fill="#EE6161"/>
<path d="M11.7399 13.586V13.9009C11.7399 14.6881 11.2676 15.3647 10.591 15.663C10.4652 15.7178 10.4652 15.8999 10.591 15.9547C11.2676 16.2525 11.7399 16.9296 11.7399 17.7168V18.0312C11.7399 18.8184 11.2676 19.4955 10.591 19.7933C10.4652 19.8481 10.4652 20.0302 10.591 20.085C11.2676 20.3828 11.7399 21.0599 11.7399 21.8471V22.1615C11.7399 23.2244 10.8782 24.086 9.81534 24.086C9.78466 24.086 9.75699 24.0986 9.73687 24.1187C9.71675 24.1388 9.70418 24.167 9.70418 24.1977V24.2968C9.70418 25.9819 8.61514 27.4175 7.10458 27.9366C6.7419 28.0609 6.37067 27.9517 6.12822 27.7073C7.35558 27.0639 8.19512 25.7767 8.19512 24.2968V24.1977C8.19512 24.167 8.2077 24.1388 8.22782 24.1187C8.24794 24.0986 8.2756 24.086 8.30629 24.086C9.36916 24.086 10.2308 23.2244 10.2308 22.1615V21.8471C10.2308 21.0599 9.7585 20.3828 9.08194 20.085C8.95619 20.0302 8.95619 19.8481 9.08194 19.7933C9.7585 19.4955 10.2308 18.8184 10.2308 18.0312V17.7168C10.2308 16.9296 9.7585 16.2525 9.08194 15.9547C8.95619 15.8999 8.95619 15.7178 9.08194 15.663C9.7585 15.3647 10.2308 14.6881 10.2308 13.9009V13.586C10.2308 12.7993 9.7585 12.1222 9.08194 11.8245C8.95418 11.7681 8.95971 11.587 9.08697 11.5297C9.50397 11.3451 9.8425 11.0161 10.0402 10.6067C10.089 10.5055 10.2238 10.4854 10.3008 10.5669C10.5422 10.8219 10.8526 11.0111 11.2022 11.1046C11.0311 11.2832 10.8254 11.4281 10.596 11.5297C10.4688 11.587 10.4632 11.7681 10.591 11.8245C11.2676 12.1222 11.7399 12.7993 11.7399 13.586V13.586Z" fill="#EE6161"/>
</g>
<defs>
<clipPath id="clip0_261_1371">
<rect width="25" height="25" fill="white" transform="translate(5 5)"/>
</clipPath>
</defs>
</svg>
