<svg width="34" height="34" viewBox="0 0 34 34" fill="none" xmlns="http://www.w3.org/2000/svg">
<rect width="34" height="34" fill="white"/>
<g clip-path="url(#clip0_261_1373)">
<path d="M22.4486 18.8845C23.7206 24.5176 24.2152 26.1214 24.2152 29.2383C24.2152 29.6588 23.8609 30 23.4242 30H7.32597C6.88927 30 6.53496 29.6588 6.53496 29.2383C6.53496 28.9677 6.60191 28.9215 7.27427 27.8402C8.45338 25.9482 9.07671 23.7813 9.07671 21.5749C9.07671 20.7669 8.9733 19.96 8.7704 19.1765L6.32773 9.76883C5.90318 8.13252 5.6875 6.44821 5.6875 4.76172C5.6875 4.34119 6.04181 4 6.47852 4H20.8824C21.0744 4 21.2664 4.06705 21.4186 4.20213L29.0441 10.9804C29.2064 11.1241 29.2987 11.3272 29.2987 11.54C29.2987 18.072 23.4174 18.8444 22.4486 18.8845V18.8845Z" fill="#FFD4CA"/>
<path d="M21.4186 4.20213C21.2664 4.06705 21.0744 4 20.8824 4H16.0896V30H23.4242C23.8609 30 24.2152 29.6588 24.2152 29.2383C24.2152 26.1214 23.7206 24.5176 22.4486 18.8845C23.4174 18.8444 29.2987 18.072 29.2987 11.54C29.2987 11.3272 29.2064 11.1241 29.0441 10.9804L21.4186 4.20213Z" fill="#F9BCAA"/>
<path d="M22.6558 16.1843C24.112 16.1843 25.4656 15.4288 26.1894 14.2124C26.1903 14.211 26.1911 14.2096 26.1919 14.208C26.6906 13.3676 26.5036 12.2948 25.747 11.6573L23.7601 9.98326C21.7049 8.25154 18.4758 9.66172 18.4758 12.2924C18.4758 13.9182 20.0692 16.1843 22.6558 16.1843V16.1843Z" fill="#D9E4EF"/>
<path d="M19.3268 16.5295C18.4589 15.8749 17.5363 16.9585 18.4758 17.8633C19.0695 18.435 20.5254 18.8837 22.4655 18.8837C23.3651 18.8412 28.025 18.2094 29.0838 13.5596C28.2422 15.9011 22.4486 18.8845 19.3268 16.5295V16.5295Z" fill="#E79A85"/>
</g>
<defs>
<clipPath id="clip0_261_1373">
<rect width="27" height="26" fill="white" transform="translate(4 4)"/>
</clipPath>
</defs>
</svg>
