<svg width="151" height="100" viewBox="0 0 151 100" fill="none" xmlns="http://www.w3.org/2000/svg">
<ellipse cx="88" cy="93" rx="60" ry="54" fill="#FF5404"/>
<mask id="mask0_484_7114" style="mask-type:alpha" maskUnits="userSpaceOnUse" x="11" y="2" width="129" height="98">
<ellipse cx="75.5" cy="51" rx="64.5" ry="49" fill="#D9D9D9"/>
</mask>
<g mask="url(#mask0_484_7114)">
<path fill-rule="evenodd" clip-rule="evenodd" d="M58.9195 54.8953C58.9195 54.8953 58.1017 68.4822 60.8334 72.038C63.565 75.5938 73.2129 74.4085 73.2129 74.4085C73.2129 74.4085 57.4666 84.2567 49.1759 84.5356C40.8939 84.8057 36.0396 78.862 36.0396 78.862C36.0396 78.862 43.4342 78.6093 44.165 74.7833C44.8957 70.9486 43.1645 63.0178 43.1645 63.0178C43.1645 63.0178 53.0907 65.3883 58.9108 54.904L58.9195 54.8953Z" fill="#FCD5C4"/>
<path fill-rule="evenodd" clip-rule="evenodd" d="M58.6499 54.6425C58.5542 56.83 58.3193 64.3861 59.5373 68.7785C57.7539 70.8702 55.3354 72.7527 52.0904 73.5893C47.3666 74.8007 45.2265 74.2255 44.0259 73.3366C44.5044 69.345 42.9385 62.155 42.9385 62.155C42.9385 62.155 52.6037 64.4645 58.4585 54.4334L58.6586 54.6425H58.6499Z" fill="#EFC7BA"/>
<path fill-rule="evenodd" clip-rule="evenodd" d="M32.3683 91.0371C33.4558 92.4402 34.4214 94.802 33.9603 98.5931C33.334 103.726 26.0959 105.374 18.1184 106.071C21.4764 100.702 28.4709 94.3576 32.3683 91.0284V91.0371Z" fill="#009A87"/>
<path fill-rule="evenodd" clip-rule="evenodd" d="M42.2163 76.535C39.5195 77.2497 35.7699 78.2781 32.612 79.2455C26.966 80.9798 26.3309 83.8994 24.417 88.2744C22.5031 92.6494 21.781 107.43 21.781 109.705C21.781 116.878 21.8941 137.262 21.7984 149.516C31.0374 153.682 41.2942 156.009 52.0903 156.009C61.2162 156.009 69.9593 154.353 78.0238 151.32C76.9451 144.871 75.6836 135.676 75.2225 129.593C74.5527 120.86 76.0403 111.265 76.0403 111.265C76.0403 111.265 76.5362 82.7315 76.0403 78.5221C75.5444 74.3127 73.9785 72.1165 61.5816 73.0664C59.3632 75.9773 54.735 78.0689 50.8202 78.8881C46.9054 79.7074 44.3129 78.2171 42.2163 76.5438V76.535Z" fill="#62C5B9"/>
<path fill-rule="evenodd" clip-rule="evenodd" d="M64.3741 80.117C64.3741 80.117 61.4597 82.0343 59.3631 93.2507C57.2665 104.467 53.4474 106.385 51.5335 106.838C49.6196 107.291 44.1562 109.121 44.1562 109.121L62.8169 109.487L64.3654 80.117H64.3741Z" fill="#09B09C"/>
<path fill-rule="evenodd" clip-rule="evenodd" d="M27.923 81.8252C26.2787 83.4723 25.5828 85.5988 24.417 88.2744C22.5031 92.6494 21.781 107.43 21.781 109.705C21.781 111.021 21.781 112.668 21.7897 114.533C22.1551 114.716 17.2573 113.644 22.9729 114.969C28.6972 116.294 52.8908 109.409 52.9343 108.128C52.9778 106.846 37.1271 107.465 30.6981 109.121C24.2604 110.768 25.4871 105.87 25.3392 99.7436C25.1913 93.6168 26.7833 86.9671 27.923 81.8252V81.8252Z" fill="#09B09C"/>
<path fill-rule="evenodd" clip-rule="evenodd" d="M66.8449 73.049C66.8449 73.049 77.3105 71.3147 80.4076 77.9731C87.576 93.3902 78.8851 123.702 66.5665 128.138C59.4677 130.691 34.5695 134.587 26.9921 130.613C19.4148 126.639 20.4152 130.334 18.223 128.321C16.0394 126.316 15.8306 125.201 15.8306 125.201L28.9495 122.281C30.0718 122.028 47.4448 120.32 54.274 114.725C58.2758 111.439 59.372 110.533 60.5551 103.875C61.5034 98.5321 61.1641 85.1021 64.0436 77.4501C64.757 75.559 65.6618 74.0251 66.8362 73.049H66.8449Z" fill="#62C5B9"/>
<path fill-rule="evenodd" clip-rule="evenodd" d="M31.3331 79.6987C22.503 83.1499 10.0539 93.3815 6.20001 115.945C3.00726 134.648 40.5112 124.913 46.8532 120.608C46.8532 120.608 48.4974 120.207 49.0715 118.298C49.9067 115.501 55.7876 115.135 57.4753 112.633C60.1113 108.711 59.3545 108.799 59.3545 108.799C59.3545 108.799 53.2995 108.119 47.1054 109.487C42.7035 106.245 19.2581 113.531 22.1898 111.221C22.1898 111.221 20.65 87.5772 31.3418 79.6899L31.3331 79.6987Z" fill="#62C5B9"/>
<path d="M41.5551 78.557C41.5551 78.557 41.8944 81.6334 49.9676 80.7445C58.1626 79.8381 62.2862 74.8182 62.2949 74.8007L62.6255 75.0796C62.6255 75.0796 58.3801 80.2564 50.0111 81.1715C41.5116 82.104 41.1288 78.6267 41.1201 78.618L41.5551 78.557V78.557Z" fill="#009A87"/>
<path d="M76.4753 89.2592C76.4753 89.3115 73.9438 107.552 63.1389 113.792L62.9214 113.418C73.5349 107.282 76.0317 89.2505 76.0404 89.2069L76.4753 89.2679V89.2592Z" fill="#009A87"/>
<path d="M76.423 83.298C76.423 83.298 73.0127 91.7605 67.8452 94.802L67.6277 94.4273C72.6647 91.4554 76.0141 83.1586 76.0228 83.1324L76.423 83.298V83.298Z" fill="#009A87"/>
<path d="M55.2048 85.564C55.2048 85.564 50.6288 100.101 36.3702 102.219L36.3093 101.783C50.2983 99.7 54.7872 85.4681 54.7959 85.4245L55.2135 85.5553L55.2048 85.564Z" fill="#009A87"/>
<path fill-rule="evenodd" clip-rule="evenodd" d="M65.5486 93.2943C65.827 93.2159 66.1576 93.5732 66.2968 94.07C66.436 94.5755 66.3142 95.0461 66.0445 95.1158C65.7661 95.1942 65.4355 94.8369 65.2963 94.3401C65.1571 93.8347 65.2789 93.364 65.5486 93.2943Z" fill="#DFF3FD"/>
<path d="M43.5213 75.0709C39.6239 77.4763 33.5603 84.3961 39.3803 103.238L37.8318 103.718C31.1418 82.0605 39.6152 75.1145 43.7823 73.0751C43.7649 73.4324 43.7388 73.7811 43.6953 74.1471C43.6518 74.5131 43.5996 74.853 43.5126 75.0709H43.5213Z" fill="#4E515F"/>
<path fill-rule="evenodd" clip-rule="evenodd" d="M38.6407 99.8743C40.6242 99.8917 42.2249 101.521 42.2075 103.517C42.1901 105.504 40.5633 107.108 38.5711 107.09C36.5876 107.073 34.9869 105.443 35.0043 103.448C35.0217 101.46 36.6485 99.8568 38.6407 99.8743Z" fill="#91BED4"/>
<path d="M54.2652 97.8785C54.2391 97.9221 46.627 113.731 49.3674 119.3C52.0207 124.695 57.0317 122.638 57.0491 122.63L57.371 123.423C57.371 123.423 51.6119 125.784 48.6018 119.675C45.6787 113.74 53.4736 97.556 53.4997 97.5037L54.2652 97.8785Z" fill="#91BED4"/>
<path d="M55.9878 94.253C54.9264 96.5974 54.5002 97.7303 54.3349 98.2707L53.1865 97.8959C53.4127 97.1116 53.8738 95.813 54.822 93.7214C56.4837 90.0523 60.3898 89.1285 63.7478 90.0959C64.9745 88.0391 66.1141 85.6424 66.958 82.9146C68.8545 76.7791 64.3046 73.5545 60.3202 71.9857C59.7373 71.3844 59.4328 70.234 59.3023 69.8331C63.9827 71.3147 71.1773 75.036 68.5935 83.42C67.7409 86.1827 66.6013 88.6143 65.3572 90.7233C68.1063 92.1091 70.0724 94.8631 69.3329 98.4101C68.8632 100.65 68.2368 102.471 67.9497 103.238L66.8014 102.864C66.9841 102.332 67.5582 100.667 68.0802 98.14C69.3851 91.9086 58.589 88.5097 55.9878 94.2443V94.253Z" fill="#4E515F"/>
<path d="M46.3748 65.5191C46.4879 67.9332 48.0451 70.2166 50.2461 71.2014C50.7071 71.4105 51.1943 71.5587 51.6989 71.55C52.5341 71.5325 53.3083 71.0706 53.8825 70.4606C54.4567 69.8505 54.8568 69.101 55.2396 68.3602C55.7355 67.4277 56.2227 66.4952 56.7186 65.5539" fill="#E8BAAA"/>
<path d="M67.7932 49.4919C67.7671 49.1781 67.7323 48.8557 67.5757 48.5768C67.3582 48.1933 66.932 47.9493 66.497 47.8621C66.0533 47.775 65.6009 47.8186 65.1572 47.897C65.1224 47.897 65.0876 47.9144 65.0528 47.9144C65.0702 47.8098 65.0876 47.7053 65.1137 47.6094C65.4356 45.9012 65.7575 44.1843 65.6792 42.4413C65.6009 40.707 65.0789 38.9291 63.8871 37.6044C63.0693 36.6893 61.9906 36.0444 60.9292 35.4169C57.9105 33.639 54.6307 31.8436 51.1074 31.9657C49.1587 32.0267 47.3057 32.6803 45.4962 33.3688C44.0608 33.9179 42.6166 34.5105 41.4683 35.504C40.3286 36.4975 38.0406 39.9226 38.2668 41.4042C38.145 43.1734 38.2842 45.509 38.5365 47.9667C38.493 47.9406 38.4495 47.9057 38.3973 47.8883C37.7797 47.5571 37.0141 47.4961 36.3529 47.714C36.1093 47.7924 35.8744 47.9144 35.6831 48.0887C35.483 48.2717 35.3351 48.5071 35.222 48.7511C34.7522 49.8405 35.1002 51.139 35.8135 52.1151C36.5269 53.0912 37.5448 53.8059 38.5626 54.4944C38.8671 54.6948 39.2151 55.1393 39.5805 55.4705C40.1198 58.6602 40.6331 61.1092 40.7462 61.4229C42.0598 65.0833 45.5571 67.9506 49.5154 68.613C53.5085 69.284 57.3102 68.4648 59.7635 65.3448C61.921 62.5908 62.8084 59.8455 63.4521 56.4553C63.513 56.1328 63.5739 55.8017 63.6348 55.4792C64.5222 54.8691 65.54 54.2155 66.236 53.6577C66.7058 53.283 67.1842 52.8908 67.48 52.3766C67.9759 51.5225 67.8889 50.4854 67.8019 49.5093L67.7932 49.4919Z" fill="#FCD4C3"/>
<path d="M64.5656 31.1726C67.3668 37.892 67.5495 45.7269 64.2611 52.1587C64.9744 49.6313 64.6699 46.8425 63.4085 44.4981C63.2258 44.1582 63.017 43.8183 62.9213 43.4435C62.7212 42.6853 62.9996 41.8922 63.0431 41.1166C63.1562 38.9117 61.3902 36.9682 59.3806 35.8701C57.1187 34.6325 54.474 34.1532 51.899 34.2316C49.3152 34.3188 46.7836 34.9462 44.3825 35.8265C43.6518 36.0967 42.8862 36.4191 42.4686 37.0466C41.9205 37.8658 42.1815 38.9291 42.1815 39.9052C42.1728 43.7399 40.5982 42.9729 39.8587 44.7247C39.1019 46.52 38.693 50.2327 38.3885 50.8689C36.9531 46.8599 35.5003 42.6592 36.144 38.4846C36.4572 36.4714 37.2402 34.5715 37.7969 32.6106C37.7969 32.6106 39.8935 30.2052 45.7832 30.3969C51.6728 30.5887 61.338 30.7891 61.338 30.7891C61.338 30.7891 64.2785 30.4579 64.5743 31.1639L64.5656 31.1726Z" fill="#472E27"/>
<path d="M46.9752 49.5006C48.4802 49.5877 48.6194 47.2521 47.1144 47.1562C45.6093 47.0691 45.4701 49.4047 46.9752 49.5006Z" fill="#4C352D"/>
<path d="M58.5369 49.8492C60.042 49.9363 60.1811 47.6007 58.6761 47.5048C57.1711 47.4177 57.0319 49.7533 58.5369 49.8492Z" fill="#4C352D"/>
<path d="M46.2269 44.5242C46.8011 44.5242 47.3665 44.6201 47.9059 44.8031C48.2191 44.9164 48.3931 45.265 48.28 45.5788C48.1669 45.8925 47.8189 46.0668 47.5057 45.9535C46.4531 45.5788 45.2351 45.6921 44.2695 46.2498C43.9824 46.4154 43.6083 46.3195 43.4343 46.0232C43.269 45.7269 43.3647 45.3609 43.6605 45.1866C44.4348 44.7421 45.3308 44.5068 46.2269 44.5068V44.5242Z" fill="#CF9380"/>
<path d="M53.3432 46.0232C53.3432 46.0232 53.4302 46.0232 53.4737 46.0407C53.6825 46.1104 53.7956 46.3457 53.726 46.5549C53.5085 47.1998 53.2823 47.8708 53.2649 48.5419C53.2301 49.6662 53.8304 50.773 54.7873 51.3656C54.883 51.4266 55.1092 51.5661 55.144 51.845C55.1788 52.0977 55.0309 52.2807 54.97 52.3592L53.3867 54.3288C53.3693 54.3985 53.3258 54.4682 53.2649 54.5205L53.1344 54.6338C52.9778 54.7733 52.7342 54.7645 52.5863 54.6251C52.4298 54.4769 52.4211 54.2416 52.5515 54.076L54.2306 51.9757C53.1083 51.2175 52.4211 49.8753 52.4559 48.5158C52.4733 47.7227 52.7342 46.9558 52.9604 46.2847C53.0213 46.1191 53.1779 46.0058 53.3432 46.0058V46.0232Z" fill="#CF9380"/>
<path d="M47.8017 48.5158C47.8365 48.6901 47.7234 48.8469 47.5494 48.8818C47.3754 48.9167 47.2188 48.8034 47.184 48.6291C47.1492 48.4548 47.2623 48.2979 47.4363 48.263C47.6103 48.2282 47.7669 48.3415 47.8017 48.5158Z" fill="white"/>
<path d="M59.4416 48.6814C59.4764 48.8557 59.3633 49.0125 59.1893 49.0474C59.0153 49.0823 58.8587 48.969 58.8239 48.7947C58.7891 48.6204 58.9022 48.4635 59.0762 48.4286C59.2502 48.3938 59.4068 48.5071 59.4416 48.6814Z" fill="white"/>
<path d="M58.5369 44.5591C59.3634 44.5591 60.1115 44.7508 61.0337 45.1604C61.3382 45.2999 61.4774 45.6572 61.3469 45.9622C61.2077 46.2673 60.851 46.4067 60.5465 46.276C59.259 45.7008 58.4934 45.6398 57.0058 45.9884C56.6752 46.0668 56.3533 45.8664 56.275 45.5352C56.1967 45.204 56.3968 44.8815 56.7274 44.8031C57.4147 44.6375 57.9975 44.5591 58.5456 44.5591H58.5369Z" fill="#CF9380"/>
<path d="M48.0278 56.4466C48.0974 56.4466 48.1583 56.464 48.2192 56.4989C49.3153 57.1002 50.6376 57.7626 52.0731 58.1199C53.5259 58.4772 54.9091 58.4424 56.0836 58.0415C56.2924 57.963 56.5273 58.0763 56.5969 58.2942C56.6665 58.5034 56.5621 58.7387 56.3446 58.8084C55.0222 59.2703 53.4824 59.3052 51.873 58.913C50.3419 58.5382 48.9673 57.8497 47.819 57.2222C47.6189 57.1176 47.5493 56.8649 47.6537 56.6732C47.7233 56.5337 47.8625 56.464 48.0104 56.464L48.0278 56.4466Z" fill="#CF9380"/>
<path d="M58.5629 25.1417C56.388 24.1394 53.8912 23.7821 51.4815 24.1307C49.8981 24.3573 48.1843 24.8541 46.8011 24.1133C47.1404 25.0632 47.8102 25.8912 48.6802 26.4402C46.6358 26.6407 44.5305 26.0916 42.895 24.9325C42.0598 25.7866 41.8249 27.1462 42.3382 28.192C41.3116 27.8957 40.1807 28.1484 39.2237 28.6539C38.2668 29.1507 37.4664 29.874 36.6661 30.5974C36.4747 30.7717 36.2746 30.9634 36.2137 31.2074C36.1615 31.434 36.2398 31.6693 36.3007 31.8872C36.8488 33.7871 36.3181 35.8178 35.9005 37.77C35.4829 39.7222 35.2132 41.8574 36.205 43.5743C36.8923 39.391 40.0502 35.7306 44.0085 33.8569C47.9581 31.9831 52.595 31.7914 56.7969 32.8285C58.3976 33.2206 59.981 33.8133 61.1728 34.9027C62.3472 35.9746 63.0519 37.4649 63.3999 38.9988C63.7479 40.5327 63.774 42.1275 63.7479 43.7137C64.3481 44.0362 65.1485 43.6614 65.54 43.1036C65.9315 42.5459 66.2533 44.3238 66.4012 43.6701C66.7231 42.2931 67.3582 40.5327 67.8454 39.1993C68.3325 37.8658 68.463 34.4582 68.4195 33.0551C68.376 31.6519 67.8193 30.2226 66.6796 29.386C65.9402 28.8369 65.0354 28.6713 64.1133 28.7498C63.5478 28.8021 62.8692 29.0461 62.3559 28.7149C61.7209 28.3053 61.4164 27.2769 60.8683 26.7278C60.2071 26.0742 59.4068 25.5513 58.5542 25.1591L58.5629 25.1417Z" fill="#472E27"/>
<path style="mix-blend-mode:multiply" d="M43.069 59.3226C46.2208 59.3226 48.7759 56.7122 48.7759 53.4921C48.7759 50.2721 46.2208 47.6617 43.069 47.6617C39.9171 47.6617 37.3621 50.2721 37.3621 53.4921C37.3621 56.7122 39.9171 59.3226 43.069 59.3226Z" fill="url(#paint0_radial_484_7114)"/>
<path style="mix-blend-mode:multiply" d="M60.8598 61.2661C64.0116 61.2661 66.5667 58.6557 66.5667 55.4356C66.5667 52.2155 64.0116 49.6052 60.8598 49.6052C57.7079 49.6052 55.1528 52.2155 55.1528 55.4356C55.1528 58.6557 57.7079 61.2661 60.8598 61.2661Z" fill="url(#paint1_radial_484_7114)"/>
<g clip-path="url(#clip0_484_7114)">
<path d="M98.0201 90.49C94.1201 90.49 89.8701 89.54 87.5701 86.34L87.8601 78.44C89.5201 78.2 90.3601 77.56 90.7801 75.49C91.2601 73.12 92.1201 67.32 92.1201 67.32H103.9C103.9 67.32 104.77 73.11 105.24 75.49C105.66 77.56 106.49 78.2 108.16 78.44L108.45 86.34C106.15 89.53 101.91 90.49 98.0001 90.49H98.0201Z" fill="url(#paint2_linear_484_7114)"/>
<path d="M98.1 89.69C103.07 89.69 107.51 87.08 110.44 83V196.31H85.76V83C88.69 87.09 93.13 89.69 98.1 89.69Z" fill="url(#paint3_linear_484_7114)"/>
<path d="M98.09 127.04L88 78.44C73.66 80.54 62.25 86.5 52.5 100.22L67.12 127.46L60.62 196.73H93.75L98.08 160.87L102.41 196.73H135.54L129.04 127.46L143.66 100.22C133.91 86.49 122.74 80.11 108.16 78.44L98.07 127.04H98.09Z" fill="white"/>
<g style="mix-blend-mode:multiply">
<path opacity="0.2" d="M113.6 107.37L113.97 108.67C114.73 109.35 114.58 111.59 114.15 112.52L98.0899 141.77L81.7099 111.6C81.2799 110.67 81.1599 109.3 81.9199 108.62L82.34 107.73H80.6699C79.6199 107.82 78.71 106.39 78.38 105.37L70.45 83.82C76.3 80.95 83.74 79.05 88.01 78.43L98.0999 127.03L108.19 78.43C112.51 78.93 116.92 79.68 125.07 83.19L117.28 105.75C116.95 106.77 115.65 107.4 114.6 107.3L113.62 107.36L113.6 107.37Z" fill="white"/>
<path opacity="0.27" d="M113.07 107.18L113.62 108.47C114.38 109.15 114.29 111.38 113.86 112.31L98.0799 141.33L82.0099 111.48C81.5799 110.55 81.4599 109.2 82.2199 108.52L82.8799 107.49L81.0399 107.51C79.9899 107.61 79.0699 106.23 78.7399 105.21L70.8599 83.64C76.5199 80.9 83.7199 79.05 87.9899 78.43L98.0799 127.03L108.17 78.43C112.49 78.93 116.93 79.71 124.68 83.03L116.89 105.62C116.56 106.64 115.33 107.25 114.27 107.14L113.06 107.17L113.07 107.18Z" fill="#F9FCFE"/>
<path opacity="0.35" d="M112.54 107L113.28 108.27C114.04 108.95 114.01 111.17 113.58 112.1L98.08 140.89L82.33 111.35C81.9 110.42 81.79 109.09 82.55 108.42L83.44 107.25L81.43 107.31C80.38 107.41 79.46 106.08 79.12 105.06L71.29 83.47C76.76 80.86 83.72 79.07 87.99 78.44L98.08 127.04L108.17 78.44C112.49 78.94 116.95 79.75 124.31 82.88L116.53 105.5C116.2 106.52 115.03 107.1 113.98 107H112.54V107Z" fill="#F5FAFE"/>
<path opacity="0.42" d="M112.01 106.81L112.94 108.06C113.7 108.74 113.73 110.95 113.3 111.88L98.08 140.44L82.65 111.21C82.22 110.28 82.11 108.98 82.87 108.3L84 106.99L81.82 107.08C80.77 107.18 79.84 105.9 79.5 104.88L71.72 83.27C77.01 80.8 83.72 79.05 87.99 78.43L98.08 127.03L108.17 78.43C112.49 78.93 116.98 79.78 123.94 82.71L116.16 105.36C115.83 106.38 114.73 106.93 113.68 106.83L112.01 106.81Z" fill="#F2F8FD"/>
<path opacity="0.49" d="M111.47 106.63L112.59 107.86C113.35 108.54 113.44 110.74 113.02 111.67L98.0899 140L82.9699 111.09C82.5399 110.16 82.4299 108.88 83.1899 108.2L84.5599 106.75L82.2099 106.88C81.1599 106.98 80.2199 105.75 79.8899 104.73L72.1599 83.1C77.2599 80.76 83.7299 79.07 87.9899 78.44L98.0799 127.04L108.17 78.44C112.49 78.94 117.01 79.82 123.57 82.56L115.8 105.24C115.47 106.26 114.44 106.78 113.38 106.68L111.47 106.63V106.63Z" fill="#EEF6FC"/>
<path opacity="0.56" d="M110.94 106.44L112.25 107.65C113.01 108.33 113.16 110.52 112.74 111.45L98.0898 139.55L83.2898 110.95C82.8598 110.02 82.7598 108.76 83.5098 108.08L85.1198 106.5L82.5998 106.66C81.5498 106.76 80.5998 105.58 80.2698 104.56L72.5898 82.91C77.4998 80.7 83.7298 79.06 87.9898 78.44L98.0798 127.04L108.17 78.44C112.49 78.94 117.03 79.85 123.19 82.4L115.42 105.11C115.09 106.13 114.12 106.62 113.07 106.52L110.93 106.44H110.94Z" fill="#EBF4FC"/>
<path opacity="0.64" d="M110.41 106.25L111.91 107.44C112.67 108.12 112.88 110.3 112.46 111.23L98.09 139.1L83.61 110.81C83.18 109.88 83.08 108.64 83.84 107.97L85.69 106.25L83 106.45C81.95 106.55 81 105.42 80.66 104.4L73.03 82.73C77.75 80.65 83.73 79.06 88 78.44L98.09 127.04L108.18 78.44C112.5 78.94 117.07 79.89 122.83 82.24L115.07 104.98C114.74 106 113.84 106.47 112.79 106.36L110.42 106.25H110.41Z" fill="#E7F2FB"/>
<path opacity="0.71" d="M109.88 106.07L111.57 107.25C112.33 107.93 112.6 110.1 112.18 111.03L98.09 138.67L83.93 110.69C83.5 109.76 83.4 108.54 84.16 107.87L86.25 106.01L83.39 106.24C82.34 106.34 81.38 105.26 81.04 104.24L73.46 82.55C77.99 80.61 83.73 79.07 88 78.44L98.09 127.04L108.18 78.44C112.5 78.94 117.1 79.92 122.46 82.08L114.7 104.85C114.37 105.87 113.54 106.31 112.48 106.2L109.88 106.06V106.07Z" fill="#E4F1FB"/>
<path opacity="0.78" d="M109.35 105.88L111.23 107.04C111.99 107.72 112.32 109.88 111.9 110.81L98.0999 138.22L84.2499 110.56C83.8199 109.63 83.7199 108.44 84.4799 107.76L86.8099 105.76L83.7799 106.03C82.7299 106.13 81.7599 105.1 81.4299 104.08L73.8999 82.37C78.2499 80.56 83.7399 79.07 88.0099 78.45L98.0999 127.05L108.19 78.45C112.51 78.95 117.14 79.96 122.1 81.93L114.34 104.72C114.01 105.74 113.24 106.15 112.19 106.05L109.35 105.89V105.88Z" fill="#E1EFFA"/>
<path opacity="0.85" d="M108.81 105.69L110.87 106.83C111.63 107.51 112.02 109.66 111.6 110.59L98.0801 137.77L84.5501 110.42C84.1201 109.49 84.0301 108.32 84.7901 107.64L87.3601 105.5L84.1601 105.8C83.1101 105.9 82.1301 104.92 81.8001 103.9L74.3101 82.17C78.4701 80.49 83.7201 79.06 87.9901 78.43L98.0801 127.03L108.17 78.43C112.49 78.93 117.14 79.97 121.71 81.75L113.96 104.57C113.63 105.59 112.93 105.97 111.88 105.87L108.81 105.68V105.69Z" fill="#DDEDFA"/>
<path opacity="0.93" d="M108.28 105.51L110.53 106.63C111.29 107.31 111.75 109.45 111.32 110.38L98.08 137.33L84.87 110.29C84.44 109.36 84.35 108.21 85.11 107.54L87.92 105.26L84.55 105.6C83.5 105.7 82.51 104.77 82.18 103.75L74.74 82C78.71 80.46 83.72 79.07 87.99 78.45L98.08 127.05L108.17 78.45C112.49 78.95 117.17 80.03 121.34 81.61L113.59 104.46C113.26 105.48 112.63 105.83 111.57 105.73L108.27 105.51H108.28Z" fill="#DAECF9"/>
<path d="M107.75 105.32L110.19 106.42C110.95 107.1 111.47 109.23 111.04 110.16L98.0899 136.88L85.1999 110.16C84.7699 109.23 84.6799 108.1 85.4399 107.43L88.4899 105.01L84.9499 105.38C83.8999 105.48 82.9099 104.6 82.5699 103.58L75.1799 81.81C78.9599 80.4 83.7299 79.07 87.9999 78.44L98.0899 127.04L108.18 78.44C112.5 78.94 117.21 80.05 120.98 81.44L113.24 104.32C112.91 105.34 112.34 105.66 111.29 105.56L107.75 105.31V105.32Z" fill="#D7EAF9"/>
</g>
<path d="M108.13 104.59L111.47 107.57L98.0799 136.89L84.6899 107.57L88.0299 104.59L83.6399 105.02L75.9299 81.46C79.7099 80.05 83.7099 79.07 87.9799 78.45L98.0699 127.05L108.16 78.45C112.48 78.95 116.5 79.87 120.28 81.26L112.5 105.02L108.11 104.59H108.13Z" fill="white"/>
<path d="M52.4999 100.22C46.1099 109.8 33.2199 128.57 31.0399 132.46C27.6999 138.42 29.6899 145.39 34.7999 148.42C51.0999 158.1 68.4399 167.36 68.4399 167.36L77.1899 152.84L57.3299 137.57L67.1199 127.46L67.1799 125.89L53.4099 99.31L52.4999 100.22V100.22Z" fill="white"/>
<path d="M143.67 100.22C150.06 109.8 165.04 133.92 167.06 137.89C170.63 144.91 166.1 152.77 158.29 153.64C138.15 155.87 118.01 157.79 118.01 157.79L115.74 143L138.53 136.62L129.06 127.47L128.9 125.16L142.58 98.77L143.68 100.23L143.67 100.22Z" fill="white"/>
<path d="M84.77 78.99C84.02 80.84 81.55 87.75 81.29 98.64L80.04 98.61C80.28 88.64 82.29 82.03 83.3 79.32C83.79 79.21 84.28 79.09 84.78 78.99H84.77Z" fill="url(#paint4_linear_484_7114)"/>
<path d="M112.87 79.2C113.86 81.83 115.93 88.48 116.17 98.62L114.92 98.65C114.66 87.59 112.1 80.63 111.4 78.91C111.9 79 112.38 79.11 112.87 79.2V79.2Z" fill="url(#paint5_linear_484_7114)"/>
<path d="M88.2401 116.83V106.35C88.2401 102.08 84.8401 98.63 80.6601 98.63C76.4801 98.63 73.0801 102.09 73.0801 106.35V116.83" stroke="#3C2E2A" stroke-width="1.34" stroke-miterlimit="10"/>
<path d="M112.1 102.46C112.1 104.58 113.78 106.29 115.86 106.29C117.94 106.29 119.62 104.57 119.62 102.46C119.62 100.35 117.94 98.63 115.86 98.63C113.78 98.63 112.1 100.35 112.1 102.46Z" fill="#B2B2B2"/>
<path d="M103.2 72.88C103 75.73 101.13 78.39 98.5499 79.49C98.0099 79.72 97.4299 79.89 96.8499 79.86C95.8799 79.82 94.9899 79.25 94.3399 78.51C93.6899 77.77 93.2499 76.87 92.8199 75.99C92.2699 74.87 91.7299 73.75 91.1799 72.64" fill="#EBB9A4"/>
<path d="M78.6199 53.17C78.6699 52.82 78.7199 52.47 78.9099 52.16C79.1699 51.74 79.6799 51.48 80.1899 51.39C80.6999 51.3 81.2299 51.36 81.7399 51.45C81.7799 51.45 81.8199 51.47 81.8599 51.48C81.8399 51.37 81.8199 51.25 81.7999 51.14C81.4899 49.25 81.1799 47.34 81.3399 45.42C81.4999 43.5 82.1699 41.55 83.5999 40.11C84.5799 39.12 85.8599 38.42 87.1199 37.74C90.6899 35.82 94.5599 33.9 98.6399 34.09C100.9 34.19 103.03 34.94 105.1 35.73C106.74 36.36 108.4 37.04 109.69 38.16C110.98 39.28 113.51 43.1 113.19 44.73C113.26 46.68 113.02 49.26 112.64 51.97C112.69 51.94 112.75 51.91 112.8 51.88C113.53 51.53 114.42 51.47 115.18 51.73C115.46 51.82 115.73 51.96 115.95 52.15C116.18 52.35 116.34 52.61 116.46 52.89C116.96 54.1 116.51 55.53 115.65 56.59C114.79 57.66 113.58 58.43 112.38 59.17C112.02 59.39 111.6 59.88 111.16 60.23C110.42 63.75 109.73 66.44 109.59 66.78C107.93 70.8 103.76 73.91 99.1499 74.58C94.4899 75.25 90.1099 74.29 87.3699 70.79C84.9599 67.71 84.0399 64.66 83.4199 60.9C83.3599 60.54 83.2999 60.18 83.2399 59.82C82.2299 59.13 81.0699 58.39 80.2899 57.76C79.7599 57.33 79.2199 56.9 78.8899 56.32C78.3499 55.37 78.4799 54.22 78.6299 53.14L78.6199 53.17Z" fill="#FCD3C2"/>
<path d="M83.0199 33.78C79.5799 41.64 79.1499 50.89 82.7899 58.59C82.0299 55.59 82.4699 52.3 83.9899 49.57C84.2099 49.17 84.4599 48.77 84.5799 48.33C84.8299 47.44 84.5299 46.5 84.5099 45.57C84.4399 42.96 86.5499 40.72 88.9099 39.48C91.5699 38.09 94.6599 37.59 97.6599 37.76C100.66 37.93 103.58 38.75 106.36 39.86C107.2 40.2 108.08 40.6 108.55 41.36C109.16 42.34 108.83 43.59 108.81 44.75C108.72 49.29 110.56 48.42 111.37 50.51C112.2 52.65 112.58 57.05 112.91 57.81C114.69 53.11 116.5 48.19 115.87 43.24C115.57 40.86 114.7 38.59 114.11 36.26C114.11 36.26 111.74 33.36 104.9 33.42C98.0499 33.48 86.8099 33.44 86.8099 33.44C86.8099 33.44 83.3999 32.96 83.0399 33.79L83.0199 33.78Z" fill="#604338"/>
<path d="M101.96 54.82C100.27 54.88 100.18 52.2 101.87 52.14C103.56 52.08 103.65 54.76 101.96 54.82Z" fill="#4C352D"/>
<path d="M89.7599 54.95C88.0699 55.01 87.9799 52.33 89.6699 52.27C91.3599 52.21 91.4499 54.89 89.7599 54.95Z" fill="#4C352D"/>
<path d="M95.9698 60.92C96.0698 60.92 96.1798 60.88 96.2598 60.81C96.4198 60.66 96.4498 60.4 96.3098 60.22L94.3798 57.65C95.7098 56.8 96.5698 55.23 96.5598 53.63C96.5598 52.7 96.2898 51.83 96.0398 50.99C95.9698 50.76 95.7298 50.63 95.4998 50.7C95.2698 50.77 95.1498 51.02 95.2198 51.25C95.4598 52.03 95.6998 52.83 95.7098 53.63C95.7098 54.97 94.9798 56.28 93.8498 56.96C93.7398 57.02 93.4898 57.17 93.4398 57.49C93.3998 57.77 93.5498 57.98 93.6198 58.07L95.4098 60.45C95.4298 60.53 95.4698 60.6 95.5298 60.66L95.6798 60.8C95.7598 60.88 95.8698 60.92 95.9698 60.92V60.92Z" fill="#CF9380"/>
<path d="M92.2399 65.97C92.1599 65.79 92.1599 65.62 92.3399 65.52C92.4699 65.45 92.6999 65.4 93.0599 65.42C94.8099 65.48 96.5899 65.44 98.3599 65.31C98.9899 65.26 100.81 65.19 100.94 65.4C101.02 65.51 101.02 65.65 100.97 65.8C98.0699 66.19 95.1199 66.25 92.2299 65.98L92.2399 65.97Z" fill="white"/>
<path d="M99.32 67.1C99.44 67.12 99.57 67.13 99.69 67.15C98.93 67.63 98.02 67.95 97.07 68.09C95.8 68.27 94.72 67.93 93.75 67.37C95.56 66.97 97.48 66.87 99.31 67.1H99.32Z" fill="#F1656A"/>
<path d="M93.75 67.37C93.75 67.37 93.65 67.31 93.6 67.28C93.14 67 92.75 66.64 92.45 66.29C92.36 66.18 92.28 66.07 92.23 65.96C95.12 66.23 98.07 66.17 100.97 65.78C100.81 66.27 100.09 66.88 99.76 67.1C99.74 67.12 99.71 67.13 99.69 67.14C99.57 67.12 99.44 67.1 99.32 67.09C97.49 66.86 95.57 66.96 93.76 67.36L93.75 67.37Z" fill="#3F3F3F"/>
<path d="M100.91 53.78C100.87 53.98 100.99 54.18 101.19 54.22C101.39 54.26 101.58 54.13 101.62 53.93C101.66 53.73 101.54 53.53 101.34 53.49C101.14 53.45 100.95 53.58 100.91 53.78Z" fill="white"/>
<path d="M88.9598 53.96C88.9198 54.16 89.0398 54.36 89.2398 54.4C89.4398 54.44 89.6298 54.31 89.6698 54.11C89.7098 53.91 89.5898 53.71 89.3898 53.67C89.1898 53.63 88.9998 53.76 88.9598 53.96Z" fill="white"/>
<path style="mix-blend-mode:multiply" d="M87.58 69.49C91.203 69.49 94.14 66.4948 94.14 62.8C94.14 59.1052 91.203 56.11 87.58 56.11C83.957 56.11 81.02 59.1052 81.02 62.8C81.02 66.4948 83.957 69.49 87.58 69.49Z" fill="url(#paint6_radial_484_7114)"/>
<path style="mix-blend-mode:multiply" d="M106.33 69.09C109.953 69.09 112.89 66.0948 112.89 62.4C112.89 58.7052 109.953 55.71 106.33 55.71C102.707 55.71 99.7698 58.7052 99.7698 62.4C99.7698 66.0948 102.707 69.09 106.33 69.09Z" fill="url(#paint7_radial_484_7114)"/>
<path d="M106.74 29.93C106.93 29.57 106.78 29.13 106.59 28.77C105.04 25.69 101.51 24 98.1099 24C94.7099 24 91.4499 25.44 88.6099 27.34C88.2399 27.58 87.8799 27.84 87.4699 27.99C86.6099 28.31 85.5799 28.12 84.8799 27.51C84.1799 26.9 83.8399 25.9 84.0199 24.98C82.7999 25.65 81.9599 26.89 81.4999 28.22C81.0399 29.55 80.9199 30.97 80.8399 32.38C80.8099 33.03 80.7799 33.69 80.8599 34.34C81.0299 35.71 81.6899 37.02 82.7299 37.91C83.7699 38.79 85.1999 39.21 86.5299 38.96C87.4399 38.79 88.2699 38.33 89.0899 37.89C93.2399 35.66 97.8599 33.72 102.5 34.44C107.19 35.16 111.74 41.48 115.28 44.69C116.53 41.99 116.32 35.64 114.87 33.05C113.55 30.7 110.65 29.39 108.05 29.97" fill="#604238"/>
<path d="M89.6299 59.36C92.2199 59.36 94.3199 56.98 94.3199 54.06C94.3199 51.14 92.2199 48.76 89.6299 48.76C87.0399 48.76 84.9399 51.14 84.9399 54.06C84.9399 56.98 87.0399 59.36 89.6299 59.36ZM89.6299 49.64C91.7399 49.64 93.4599 51.62 93.4599 54.06C93.4599 56.5 91.7399 58.48 89.6299 58.48C87.5199 58.48 85.7999 56.5 85.7999 54.06C85.7999 51.62 87.5199 49.64 89.6299 49.64Z" fill="#64443A"/>
<path d="M102.5 58.89C105.09 58.89 107.19 56.51 107.19 53.59C107.19 50.67 105.09 48.29 102.5 48.29C99.9098 48.29 97.8098 50.67 97.8098 53.59C97.8098 56.51 99.9098 58.89 102.5 58.89ZM102.5 49.17C104.61 49.17 106.33 51.15 106.33 53.59C106.33 56.03 104.61 58.01 102.5 58.01C100.39 58.01 98.6698 56.03 98.6698 53.59C98.6698 51.15 100.39 49.17 102.5 49.17Z" fill="#64443A"/>
<path d="M93.51 53.48L98.19 53.28L98.15 52.4L93.47 52.61L93.51 53.48Z" fill="#64443A"/>
</g>
</g>
<g clip-path="url(#clip1_484_7114)">
<path fill-rule="evenodd" clip-rule="evenodd" d="M58.9116 54.8953C58.9116 54.8953 58.0939 68.4822 60.8255 72.038C63.5572 75.5938 73.2051 74.4085 73.2051 74.4085C73.2051 74.4085 57.4588 84.2567 49.1681 84.5356C40.8861 84.8057 36.0317 78.862 36.0317 78.862C36.0317 78.862 43.4264 78.6092 44.1571 74.7833C44.8879 70.9486 43.1567 63.0178 43.1567 63.0178C43.1567 63.0178 53.0829 65.3883 58.9029 54.904L58.9116 54.8953Z" fill="#FCD5C4"/>
<path fill-rule="evenodd" clip-rule="evenodd" d="M58.6421 54.6425C58.5464 56.83 58.3115 64.3861 59.5295 68.7785C57.7461 70.8702 55.3276 72.7526 52.0826 73.5893C47.3588 74.8007 45.2187 74.2255 44.0181 73.3366C44.4966 69.345 42.9307 62.155 42.9307 62.155C42.9307 62.155 52.5959 64.4645 58.4507 54.4333L58.6508 54.6425H58.6421Z" fill="#EFC7BA"/>
<path fill-rule="evenodd" clip-rule="evenodd" d="M32.3605 91.0371C33.448 92.4402 34.4136 94.802 33.9525 98.5931C33.3262 103.726 26.0881 105.374 18.1106 106.071C21.4686 100.702 28.4631 94.3576 32.3605 91.0284V91.0371Z" fill="#009A87"/>
<path fill-rule="evenodd" clip-rule="evenodd" d="M42.2085 76.535C39.5116 77.2497 35.7621 78.2781 32.6042 79.2455C26.9581 80.9798 26.3231 83.8994 24.4092 88.2744C22.4953 92.6494 21.7732 107.43 21.7732 109.705C21.7732 116.878 21.8863 137.262 21.7906 149.516C31.0295 153.682 41.2864 156.009 52.0825 156.009C61.2084 156.009 69.9515 154.353 78.016 151.32C76.9372 144.871 75.6758 135.676 75.2147 129.593C74.5449 120.86 76.0325 111.265 76.0325 111.265C76.0325 111.265 76.5284 82.7315 76.0325 78.5221C75.5366 74.3127 73.9707 72.1164 61.5738 73.0664C59.3554 75.9773 54.7272 78.0689 50.8124 78.8881C46.8976 79.7074 44.3051 78.2171 42.2085 76.5437V76.535Z" fill="#62C5B9"/>
<path fill-rule="evenodd" clip-rule="evenodd" d="M64.3663 80.117C64.3663 80.117 61.4519 82.0343 59.3553 93.2507C57.2587 104.467 53.4396 106.385 51.5257 106.838C49.6118 107.291 44.1484 109.121 44.1484 109.121L62.809 109.487L64.3576 80.117H64.3663Z" fill="#09B09C"/>
<path fill-rule="evenodd" clip-rule="evenodd" d="M27.9151 81.8251C26.2709 83.4723 25.575 85.5988 24.4092 88.2744C22.4953 92.6494 21.7732 107.43 21.7732 109.705C21.7732 111.021 21.7732 112.668 21.7819 114.533C22.1473 114.716 17.2495 113.644 22.9651 114.969C28.6894 116.294 52.8829 109.409 52.9264 108.128C52.9699 106.846 37.1193 107.465 30.6903 109.121C24.2526 110.768 25.4793 105.87 25.3314 99.7435C25.1835 93.6168 26.7755 86.9671 27.9151 81.8251V81.8251Z" fill="#09B09C"/>
<path fill-rule="evenodd" clip-rule="evenodd" d="M66.8371 73.049C66.8371 73.049 77.3027 71.3146 80.3997 77.973C87.5682 93.3902 78.8773 123.702 66.5587 128.138C59.4599 130.691 34.5617 134.587 26.9843 130.613C19.407 126.639 20.4074 130.334 18.2151 128.321C16.0315 126.316 15.8228 125.201 15.8228 125.201L28.9417 122.281C30.064 122.028 47.437 120.32 54.2662 114.725C58.268 111.439 59.3642 110.533 60.5473 103.875C61.4956 98.5321 61.1563 85.1021 64.0358 77.4501C64.7492 75.5589 65.654 74.0251 66.8284 73.049H66.8371Z" fill="#62C5B9"/>
<path fill-rule="evenodd" clip-rule="evenodd" d="M31.3253 79.6986C22.4952 83.1498 10.0461 93.3815 6.19219 115.945C2.99945 134.648 40.5033 124.913 46.8453 120.608C46.8453 120.608 48.4896 120.207 49.0637 118.298C49.8989 115.501 55.7798 115.135 57.4675 112.633C60.1035 108.711 59.3466 108.799 59.3466 108.799C59.3466 108.799 53.2917 108.119 47.0976 109.487C42.6956 106.245 19.2503 113.531 22.182 111.221C22.182 111.221 20.6422 87.5772 31.334 79.6899L31.3253 79.6986Z" fill="#62C5B9"/>
<path d="M41.5473 78.557C41.5473 78.557 41.8866 81.6334 49.9598 80.7445C58.1548 79.8381 62.2784 74.8181 62.2871 74.8007L62.6177 75.0796C62.6177 75.0796 58.3723 80.2564 50.0033 81.1715C41.5038 82.104 41.121 78.6267 41.1123 78.618L41.5473 78.557V78.557Z" fill="#009A87"/>
<path d="M76.4675 89.2592C76.4675 89.3115 73.9359 107.552 63.1311 113.792L62.9136 113.418C73.5271 107.282 76.0238 89.2505 76.0325 89.2069L76.4675 89.2679V89.2592Z" fill="#009A87"/>
<path d="M76.4152 83.298C76.4152 83.298 73.0049 91.7604 67.8374 94.802L67.6199 94.4273C72.6569 91.4554 76.0063 83.1586 76.015 83.1324L76.4152 83.298V83.298Z" fill="#009A87"/>
<path d="M55.197 85.564C55.197 85.564 50.621 100.101 36.3624 102.219L36.3015 101.783C50.2904 99.7 54.7794 85.4681 54.7881 85.4245L55.2057 85.5552L55.197 85.564Z" fill="#009A87"/>
<path fill-rule="evenodd" clip-rule="evenodd" d="M65.5408 93.2943C65.8192 93.2159 66.1498 93.5732 66.2889 94.07C66.4281 94.5754 66.3063 95.0461 66.0367 95.1158C65.7583 95.1942 65.4277 94.8369 65.2885 94.3401C65.1493 93.8346 65.2711 93.364 65.5408 93.2943Z" fill="#DFF3FD"/>
<path d="M43.5135 75.0709C39.6161 77.4763 33.5525 84.3961 39.3725 103.238L37.824 103.718C31.134 82.0605 39.6074 75.1145 43.7745 73.0751C43.7571 73.4324 43.731 73.781 43.6875 74.1471C43.644 74.5131 43.5918 74.853 43.5048 75.0709H43.5135Z" fill="#4E515F"/>
<path fill-rule="evenodd" clip-rule="evenodd" d="M38.6329 99.8743C40.6164 99.8917 42.2171 101.521 42.1997 103.517C42.1823 105.504 40.5555 107.108 38.5633 107.09C36.5798 107.073 34.9791 105.443 34.9965 103.447C35.0139 101.46 36.6407 99.8568 38.6329 99.8743Z" fill="#91BED4"/>
<path d="M54.2574 97.8785C54.2313 97.9221 46.6192 113.731 49.3596 119.3C52.0129 124.695 57.0239 122.638 57.0413 122.63L57.3632 123.423C57.3632 123.423 51.6041 125.784 48.594 119.675C45.6709 113.74 53.4658 97.556 53.4919 97.5037L54.2574 97.8785Z" fill="#91BED4"/>
<path d="M55.98 94.253C54.9186 96.5974 54.4923 97.7303 54.3271 98.2707L53.1787 97.8959C53.4049 97.1116 53.866 95.813 54.8142 93.7214C56.4758 90.0523 60.382 89.1285 63.74 90.0958C64.9666 88.0391 66.1063 85.6424 66.9501 82.9145C68.8467 76.7791 64.2968 73.5544 60.3124 71.9857C59.7295 71.3844 59.425 70.234 59.2945 69.8331C63.9749 71.3146 71.1694 75.036 68.5857 83.42C67.7331 86.1827 66.5935 88.6143 65.3494 90.7233C68.0985 92.109 70.0646 94.863 69.3251 98.4101C68.8554 100.65 68.229 102.471 67.9419 103.238L66.7936 102.864C66.9762 102.332 67.5504 100.667 68.0724 98.1399C69.3773 91.9086 58.5811 88.5097 55.98 94.2443V94.253Z" fill="#4E515F"/>
<g clip-path="url(#clip2_484_7114)">
<path d="M98.0123 90.49C94.1123 90.49 89.8623 89.54 87.5623 86.34L87.8523 78.44C89.5123 78.2 90.3523 77.56 90.7723 75.49C91.2523 73.12 92.1123 67.32 92.1123 67.32H103.892C103.892 67.32 104.762 73.11 105.232 75.49C105.652 77.56 106.482 78.2 108.152 78.44L108.442 86.34C106.142 89.53 101.902 90.49 97.9923 90.49H98.0123Z" fill="url(#paint8_linear_484_7114)"/>
<path d="M98.0922 89.69C103.062 89.69 107.502 87.08 110.432 83V196.31H85.7522V83C88.6822 87.09 93.1222 89.69 98.0922 89.69Z" fill="url(#paint9_linear_484_7114)"/>
<path d="M98.0822 127.04L87.9922 78.44C73.6522 80.54 62.2422 86.5 52.4922 100.22L67.1122 127.46L60.6122 196.73H93.7422L98.0722 160.87L102.402 196.73H135.532L129.032 127.46L143.652 100.22C133.902 86.49 122.732 80.11 108.152 78.44L98.0622 127.04H98.0822Z" fill="white"/>
<g style="mix-blend-mode:multiply">
<path opacity="0.2" d="M113.592 107.37L113.962 108.67C114.722 109.35 114.572 111.59 114.142 112.52L98.0821 141.77L81.7021 111.6C81.2721 110.67 81.1521 109.3 81.9121 108.62L82.3321 107.73H80.6621C79.6121 107.82 78.7021 106.39 78.3721 105.37L70.4421 83.82C76.2921 80.95 83.7321 79.05 88.0021 78.43L98.0921 127.03L108.182 78.43C112.502 78.93 116.912 79.68 125.062 83.19L117.272 105.75C116.942 106.77 115.642 107.4 114.592 107.3L113.612 107.36L113.592 107.37Z" fill="white"/>
<path opacity="0.27" d="M113.062 107.18L113.612 108.47C114.372 109.15 114.282 111.38 113.852 112.31L98.0721 141.33L82.002 111.48C81.572 110.55 81.4521 109.2 82.2121 108.52L82.8721 107.49L81.0321 107.51C79.9821 107.61 79.0621 106.23 78.7321 105.21L70.8521 83.64C76.5121 80.9 83.7121 79.05 87.9821 78.43L98.0721 127.03L108.162 78.43C112.482 78.93 116.922 79.71 124.672 83.03L116.882 105.62C116.552 106.64 115.322 107.25 114.262 107.14L113.052 107.17L113.062 107.18Z" fill="#F9FCFE"/>
<path opacity="0.35" d="M112.532 107L113.272 108.27C114.032 108.95 114.002 111.17 113.572 112.1L98.0722 140.89L82.3222 111.35C81.8922 110.42 81.7822 109.09 82.5422 108.42L83.4322 107.25L81.4222 107.31C80.3722 107.41 79.4522 106.08 79.1122 105.06L71.2822 83.47C76.7522 80.86 83.7122 79.07 87.9822 78.44L98.0722 127.04L108.162 78.44C112.482 78.94 116.942 79.75 124.302 82.88L116.522 105.5C116.192 106.52 115.022 107.1 113.972 107H112.532V107Z" fill="#F5FAFE"/>
<path opacity="0.42" d="M112.002 106.81L112.932 108.06C113.692 108.74 113.722 110.95 113.292 111.88L98.0722 140.44L82.6422 111.21C82.2122 110.28 82.1022 108.98 82.8622 108.3L83.9922 106.99L81.8122 107.08C80.7622 107.18 79.8322 105.9 79.4922 104.88L71.7122 83.27C77.0022 80.8 83.7122 79.05 87.9822 78.43L98.0722 127.03L108.162 78.43C112.482 78.93 116.972 79.78 123.932 82.71L116.152 105.36C115.822 106.38 114.722 106.93 113.672 106.83L112.002 106.81Z" fill="#F2F8FD"/>
<path opacity="0.49" d="M111.462 106.63L112.582 107.86C113.342 108.54 113.432 110.74 113.012 111.67L98.0821 140L82.9621 111.09C82.5321 110.16 82.4221 108.88 83.1821 108.2L84.5521 106.75L82.2021 106.88C81.1521 106.98 80.2121 105.75 79.8821 104.73L72.1521 83.1C77.2521 80.76 83.7221 79.07 87.9821 78.44L98.0721 127.04L108.162 78.44C112.482 78.94 117.002 79.82 123.562 82.56L115.792 105.24C115.462 106.26 114.432 106.78 113.372 106.68L111.462 106.63V106.63Z" fill="#EEF6FC"/>
<path opacity="0.56" d="M110.932 106.44L112.242 107.65C113.002 108.33 113.152 110.52 112.732 111.45L98.082 139.55L83.282 110.95C82.852 110.02 82.752 108.76 83.502 108.08L85.112 106.5L82.592 106.66C81.542 106.76 80.592 105.58 80.262 104.56L72.582 82.91C77.492 80.7 83.722 79.06 87.982 78.44L98.072 127.04L108.162 78.44C112.482 78.94 117.022 79.85 123.182 82.4L115.412 105.11C115.082 106.13 114.112 106.62 113.062 106.52L110.922 106.44H110.932Z" fill="#EBF4FC"/>
<path opacity="0.64" d="M110.402 106.25L111.902 107.44C112.662 108.12 112.872 110.3 112.452 111.23L98.0822 139.1L83.6022 110.81C83.1722 109.88 83.0722 108.64 83.8322 107.97L85.6822 106.25L82.9922 106.45C81.9422 106.55 80.9922 105.42 80.6522 104.4L73.0222 82.73C77.7422 80.65 83.7222 79.06 87.9922 78.44L98.0822 127.04L108.172 78.44C112.492 78.94 117.062 79.89 122.822 82.24L115.062 104.98C114.732 106 113.832 106.47 112.782 106.36L110.412 106.25H110.402Z" fill="#E7F2FB"/>
<path opacity="0.71" d="M109.872 106.07L111.562 107.25C112.322 107.93 112.592 110.1 112.172 111.03L98.0821 138.67L83.9221 110.69C83.4921 109.76 83.3921 108.54 84.1521 107.87L86.2421 106.01L83.3821 106.24C82.3321 106.34 81.3722 105.26 81.0322 104.24L73.4521 82.55C77.9821 80.61 83.7221 79.07 87.9921 78.44L98.0821 127.04L108.172 78.44C112.492 78.94 117.092 79.92 122.452 82.08L114.692 104.85C114.362 105.87 113.532 106.31 112.472 106.2L109.872 106.06V106.07Z" fill="#E4F1FB"/>
<path opacity="0.78" d="M109.342 105.88L111.222 107.04C111.982 107.72 112.312 109.88 111.892 110.81L98.0921 138.22L84.2421 110.56C83.8121 109.63 83.7121 108.44 84.4721 107.76L86.8021 105.76L83.7721 106.03C82.7221 106.13 81.7521 105.1 81.4221 104.08L73.8921 82.37C78.2421 80.56 83.7321 79.07 88.0021 78.45L98.0921 127.05L108.182 78.45C112.502 78.95 117.132 79.96 122.092 81.93L114.332 104.72C114.002 105.74 113.232 106.15 112.182 106.05L109.342 105.89V105.88Z" fill="#E1EFFA"/>
<path opacity="0.85" d="M108.802 105.69L110.862 106.83C111.622 107.51 112.012 109.66 111.592 110.59L98.0722 137.77L84.5422 110.42C84.1122 109.49 84.0222 108.32 84.7822 107.64L87.3522 105.5L84.1522 105.8C83.1022 105.9 82.1222 104.92 81.7922 103.9L74.3022 82.17C78.4622 80.49 83.7122 79.06 87.9822 78.43L98.0722 127.03L108.162 78.43C112.482 78.93 117.132 79.97 121.702 81.75L113.952 104.57C113.622 105.59 112.922 105.97 111.872 105.87L108.802 105.68V105.69Z" fill="#DDEDFA"/>
<path opacity="0.93" d="M108.272 105.51L110.522 106.63C111.282 107.31 111.742 109.45 111.312 110.38L98.0722 137.33L84.8622 110.29C84.4322 109.36 84.3422 108.21 85.1022 107.54L87.9122 105.26L84.5422 105.6C83.4922 105.7 82.5022 104.77 82.1722 103.75L74.7322 82C78.7022 80.46 83.7122 79.07 87.9822 78.45L98.0722 127.05L108.162 78.45C112.482 78.95 117.162 80.03 121.332 81.61L113.582 104.46C113.252 105.48 112.622 105.83 111.562 105.73L108.262 105.51H108.272Z" fill="#DAECF9"/>
<path d="M107.742 105.32L110.182 106.42C110.942 107.1 111.462 109.23 111.032 110.16L98.0821 136.88L85.1921 110.16C84.7621 109.23 84.6721 108.1 85.4321 107.43L88.4821 105.01L84.9421 105.38C83.8921 105.48 82.9021 104.6 82.5621 103.58L75.1721 81.81C78.9521 80.4 83.7221 79.07 87.9921 78.44L98.0821 127.04L108.172 78.44C112.492 78.94 117.202 80.05 120.972 81.44L113.232 104.32C112.902 105.34 112.332 105.66 111.282 105.56L107.742 105.31V105.32Z" fill="#D7EAF9"/>
</g>
<path d="M108.122 104.59L111.462 107.57L98.0721 136.89L84.6821 107.57L88.0221 104.59L83.6321 105.02L75.9221 81.46C79.7021 80.05 83.7021 79.07 87.9721 78.45L98.0621 127.05L108.152 78.45C112.472 78.95 116.492 79.87 120.272 81.26L112.492 105.02L108.102 104.59H108.122Z" fill="white"/>
<path d="M52.4921 100.22C46.1021 109.8 33.2121 128.57 31.0321 132.46C27.6921 138.42 29.6821 145.39 34.7921 148.42C51.0921 158.1 68.4321 167.36 68.4321 167.36L77.1821 152.84L57.3221 137.57L67.1121 127.46L67.1721 125.89L53.4021 99.31L52.4921 100.22V100.22Z" fill="white"/>
<path d="M143.662 100.22C150.052 109.8 165.032 133.92 167.052 137.89C170.622 144.91 166.092 152.77 158.282 153.64C138.142 155.87 118.002 157.79 118.002 157.79L115.732 143L138.522 136.62L129.052 127.47L128.892 125.16L142.572 98.77L143.672 100.23L143.662 100.22Z" fill="white"/>
<path d="M84.7622 78.99C84.0122 80.84 81.5422 87.75 81.2822 98.64L80.0322 98.61C80.2722 88.64 82.2822 82.03 83.2922 79.32C83.7822 79.21 84.2722 79.09 84.7722 78.99H84.7622Z" fill="url(#paint10_linear_484_7114)"/>
<path d="M112.862 79.2C113.852 81.83 115.922 88.48 116.162 98.62L114.912 98.65C114.652 87.59 112.092 80.63 111.392 78.91C111.892 79 112.372 79.11 112.862 79.2V79.2Z" fill="url(#paint11_linear_484_7114)"/>
<path d="M88.2323 116.83V106.35C88.2323 102.08 84.8323 98.63 80.6523 98.63C76.4723 98.63 73.0723 102.09 73.0723 106.35V116.83" stroke="#3C2E2A" stroke-width="1.34" stroke-miterlimit="10"/>
<path d="M112.092 102.46C112.092 104.58 113.772 106.29 115.852 106.29C117.932 106.29 119.612 104.57 119.612 102.46C119.612 100.35 117.932 98.63 115.852 98.63C113.772 98.63 112.092 100.35 112.092 102.46Z" fill="#B2B2B2"/>
<path d="M103.192 72.88C102.992 75.73 101.122 78.39 98.5421 79.49C98.0021 79.72 97.4221 79.89 96.8421 79.86C95.8721 79.82 94.9821 79.25 94.3321 78.51C93.6821 77.77 93.2421 76.87 92.8121 75.99C92.2621 74.87 91.7221 73.75 91.1721 72.64" fill="#EBB9A4"/>
<path d="M78.6121 53.17C78.6621 52.82 78.7121 52.47 78.9021 52.16C79.1621 51.74 79.6721 51.48 80.1821 51.39C80.6921 51.3 81.2221 51.36 81.7321 51.45C81.7721 51.45 81.8121 51.47 81.8521 51.48C81.8321 51.37 81.8121 51.25 81.7921 51.14C81.4821 49.25 81.1721 47.34 81.3321 45.42C81.4921 43.5 82.1621 41.55 83.5921 40.11C84.5721 39.12 85.8521 38.42 87.1121 37.74C90.6821 35.82 94.5521 33.9 98.6321 34.09C100.892 34.19 103.022 34.94 105.092 35.73C106.732 36.36 108.392 37.04 109.682 38.16C110.972 39.28 113.502 43.1 113.182 44.73C113.252 46.68 113.012 49.26 112.632 51.97C112.682 51.94 112.742 51.91 112.792 51.88C113.522 51.53 114.412 51.47 115.172 51.73C115.452 51.82 115.722 51.96 115.942 52.15C116.172 52.35 116.332 52.61 116.452 52.89C116.952 54.1 116.502 55.53 115.642 56.59C114.782 57.66 113.572 58.43 112.372 59.17C112.012 59.39 111.592 59.88 111.152 60.23C110.412 63.75 109.722 66.44 109.582 66.78C107.922 70.8 103.752 73.91 99.1421 74.58C94.4821 75.25 90.1021 74.29 87.3621 70.79C84.9521 67.71 84.0321 64.66 83.4121 60.9C83.3521 60.54 83.2921 60.18 83.2321 59.82C82.2221 59.13 81.0621 58.39 80.2821 57.76C79.7521 57.33 79.2121 56.9 78.8821 56.32C78.3421 55.37 78.4721 54.22 78.6221 53.14L78.6121 53.17Z" fill="#FCD3C2"/>
</g>
</g>
<defs>
<radialGradient id="paint0_radial_484_7114" cx="0" cy="0" r="1" gradientUnits="userSpaceOnUse" gradientTransform="translate(43.1135 53.4921) rotate(180) scale(5.70362 5.83045)">
<stop stop-color="#FADACC"/>
<stop offset="0.38" stop-color="#FCECE6"/>
<stop offset="0.74" stop-color="#FEFAF8"/>
<stop offset="1" stop-color="white"/>
</radialGradient>
<radialGradient id="paint1_radial_484_7114" cx="0" cy="0" r="1" gradientUnits="userSpaceOnUse" gradientTransform="translate(60.8725 55.4356) rotate(180) scale(5.70362 5.83045)">
<stop stop-color="#FADACC"/>
<stop offset="0.38" stop-color="#FCECE6"/>
<stop offset="0.74" stop-color="#FEFAF8"/>
<stop offset="1" stop-color="white"/>
</radialGradient>
<linearGradient id="paint2_linear_484_7114" x1="97.8747" y1="69.85" x2="97.8747" y2="82.83" gradientUnits="userSpaceOnUse">
<stop stop-color="#E7A38E"/>
<stop offset="0.32" stop-color="#EEB8A7"/>
<stop offset="0.75" stop-color="#F6CFC2"/>
<stop offset="1" stop-color="#FAD8CD"/>
</linearGradient>
<linearGradient id="paint3_linear_484_7114" x1="97.8464" y1="93.52" x2="97.8464" y2="195.96" gradientUnits="userSpaceOnUse">
<stop stop-color="#84A589"/>
<stop offset="0.39" stop-color="#769A7E"/>
<stop offset="1" stop-color="#598467"/>
</linearGradient>
<linearGradient id="paint4_linear_484_7114" x1="82.1664" y1="97.35" x2="82.1664" y2="78.39" gradientUnits="userSpaceOnUse">
<stop stop-color="#3C2E2A"/>
<stop offset="0.2" stop-color="#41322E"/>
<stop offset="0.45" stop-color="#4F3E39"/>
<stop offset="0.72" stop-color="#67534D"/>
<stop offset="1" stop-color="#8A7169"/>
</linearGradient>
<linearGradient id="paint5_linear_484_7114" x1="113.507" y1="97.35" x2="113.507" y2="78.39" gradientUnits="userSpaceOnUse">
<stop stop-color="#3C2E2A"/>
<stop offset="0.2" stop-color="#41322E"/>
<stop offset="0.45" stop-color="#4F3E39"/>
<stop offset="0.72" stop-color="#67534D"/>
<stop offset="1" stop-color="#8A7169"/>
</linearGradient>
<radialGradient id="paint6_radial_484_7114" cx="0" cy="0" r="1" gradientUnits="userSpaceOnUse" gradientTransform="translate(87.3408 62.8) rotate(180) scale(6.5562 6.69)">
<stop stop-color="#FADACC"/>
<stop offset="0.38" stop-color="#FCECE6"/>
<stop offset="0.74" stop-color="#FEFAF8"/>
<stop offset="1" stop-color="white"/>
</radialGradient>
<radialGradient id="paint7_radial_484_7114" cx="0" cy="0" r="1" gradientUnits="userSpaceOnUse" gradientTransform="translate(106.068 62.4) rotate(180) scale(6.5562 6.69)">
<stop stop-color="#FADACC"/>
<stop offset="0.38" stop-color="#FCECE6"/>
<stop offset="0.74" stop-color="#FEFAF8"/>
<stop offset="1" stop-color="white"/>
</radialGradient>
<linearGradient id="paint8_linear_484_7114" x1="97.8669" y1="69.85" x2="97.8669" y2="82.83" gradientUnits="userSpaceOnUse">
<stop stop-color="#E7A38E"/>
<stop offset="0.32" stop-color="#EEB8A7"/>
<stop offset="0.75" stop-color="#F6CFC2"/>
<stop offset="1" stop-color="#FAD8CD"/>
</linearGradient>
<linearGradient id="paint9_linear_484_7114" x1="97.8386" y1="93.52" x2="97.8386" y2="195.96" gradientUnits="userSpaceOnUse">
<stop stop-color="#84A589"/>
<stop offset="0.39" stop-color="#769A7E"/>
<stop offset="1" stop-color="#598467"/>
</linearGradient>
<linearGradient id="paint10_linear_484_7114" x1="82.1586" y1="97.35" x2="82.1586" y2="78.39" gradientUnits="userSpaceOnUse">
<stop stop-color="#3C2E2A"/>
<stop offset="0.2" stop-color="#41322E"/>
<stop offset="0.45" stop-color="#4F3E39"/>
<stop offset="0.72" stop-color="#67534D"/>
<stop offset="1" stop-color="#8A7169"/>
</linearGradient>
<linearGradient id="paint11_linear_484_7114" x1="113.499" y1="97.35" x2="113.499" y2="78.39" gradientUnits="userSpaceOnUse">
<stop stop-color="#3C2E2A"/>
<stop offset="0.2" stop-color="#41322E"/>
<stop offset="0.45" stop-color="#4F3E39"/>
<stop offset="0.72" stop-color="#67534D"/>
<stop offset="1" stop-color="#8A7169"/>
</linearGradient>
<clipPath id="clip0_484_7114">
<rect width="147.94" height="172.73" fill="white" transform="translate(24 24)"/>
</clipPath>
<clipPath id="clip1_484_7114">
<rect width="151" height="28" fill="white" transform="translate(0 72)"/>
</clipPath>
<clipPath id="clip2_484_7114">
<rect width="147.94" height="172.73" fill="white" transform="translate(23.9922 24)"/>
</clipPath>
</defs>
</svg>
